<svg width="150" height="116" viewBox="0 0 150 116" fill="none" xmlns="http://www.w3.org/2000/svg">
<path d="M135 54.23L106.25 36.3467V24.1667C106.403 21.7256 105.298 19.3371 103.178 17.525C101.057 15.7129 98.0939 14.6251 94.9377 14.5H23.6877C20.5538 14.6496 17.6222 15.7481 15.5282 17.5575C13.4342 19.3668 12.3463 21.7414 12.5002 24.1667V72.5C12.4422 74.4193 13.1245 76.3086 14.4603 77.9269C15.796 79.5452 17.7246 80.8192 20.0002 81.5867C18.8492 83.7643 18.4006 86.1258 18.6931 88.4675C18.9857 90.8091 20.0106 93.0605 21.6794 95.0275C23.3482 96.9944 25.6109 98.6178 28.2721 99.7576C30.9333 100.897 33.9131 101.519 36.9545 101.57C39.9959 101.62 43.0075 101.097 45.7294 100.047C48.4513 98.9963 50.8018 97.4494 52.578 95.5395C54.3543 93.6297 55.503 91.4142 55.9249 89.0844C56.3469 86.7547 56.0296 84.3804 55.0002 82.1667H94.7502C93.7223 84.3568 93.392 86.7062 93.7873 89.016C94.1825 91.3258 95.2917 93.5279 97.0209 95.4359C98.7501 97.3439 101.048 98.9015 103.721 99.9769C106.394 101.052 109.362 101.614 112.375 101.614C115.388 101.614 118.357 101.052 121.029 99.9769C123.702 98.9015 126 97.3439 127.729 95.4359C129.459 93.5279 130.568 91.3258 130.963 89.016C131.358 86.7062 131.028 84.3568 130 82.1667H131.25C132.908 82.1667 134.498 81.6574 135.67 80.751C136.842 79.8446 137.5 78.6152 137.5 77.3333V58C137.481 57.266 137.246 56.5451 136.813 55.8919C136.38 55.2386 135.76 54.6703 135 54.23ZM125 60.32V72.5H106.25V48.72L125 60.32ZM43.7502 87C43.7502 87.9559 43.3836 88.8904 42.6969 89.6852C42.0101 90.4801 41.034 91.0996 39.892 91.4654C38.7499 91.8312 37.4933 91.927 36.2809 91.7405C35.0685 91.554 33.9549 91.0936 33.0808 90.4177C32.2067 89.7417 31.6115 88.8805 31.3703 87.9429C31.1291 87.0054 31.2529 86.0335 31.726 85.1504C32.199 84.2672 33.0001 83.5123 34.0279 82.9812C35.0557 82.4501 36.2641 82.1667 37.5002 82.1667C39.1578 82.1667 40.7475 82.6759 41.9196 83.5823C43.0917 84.4887 43.7502 85.7181 43.7502 87ZM118.75 87C118.75 87.9559 118.384 88.8904 117.697 89.6852C117.01 90.4801 116.034 91.0996 114.892 91.4654C113.75 91.8312 112.493 91.927 111.281 91.7405C110.069 91.554 108.955 91.0936 108.081 90.4177C107.207 89.7417 106.611 88.8805 106.37 87.9429C106.129 87.0054 106.253 86.0335 106.726 85.1504C107.199 84.2672 108 83.5123 109.028 82.9812C110.056 82.4501 111.264 82.1667 112.5 82.1667C114.158 82.1667 115.748 82.6759 116.92 83.5823C118.092 84.4887 118.75 85.7181 118.75 87Z" fill="black"/>
</svg>
