<svg width="127" height="98" viewBox="0 0 127 98" fill="none" xmlns="http://www.w3.org/2000/svg">
<path d="M7.9375 71.9844C7.9375 74.7982 9.40097 77.4967 12.006 79.4863C14.611 81.476 18.1441 82.5938 21.8281 82.5938H105.172C108.856 82.5938 112.389 81.476 114.994 79.4863C117.599 77.4967 119.062 74.7982 119.062 71.9844V42.8086H7.9375V71.9844ZM24.3086 57.5859C24.3086 56.0786 25.0926 54.6329 26.4881 53.567C27.8837 52.5012 29.7764 51.9023 31.75 51.9023H43.6562C45.6298 51.9023 47.5226 52.5012 48.9181 53.567C50.3137 54.6329 51.0977 56.0786 51.0977 57.5859V61.375C51.0977 62.8824 50.3137 64.328 48.9181 65.3939C47.5226 66.4598 45.6298 67.0586 43.6562 67.0586H31.75C29.7764 67.0586 27.8837 66.4598 26.4881 65.3939C25.0926 64.328 24.3086 62.8824 24.3086 61.375V57.5859ZM105.172 15.9062H21.8281C18.1441 15.9062 14.611 17.024 12.006 19.0137C9.40097 21.0033 7.9375 23.7018 7.9375 26.5156V31.4414H119.062V26.5156C119.062 23.7018 117.599 21.0033 114.994 19.0137C112.389 17.024 108.856 15.9062 105.172 15.9062Z" fill="black"/>
</svg>
