<svg width="103" height="99" viewBox="0 0 103 99" fill="none" xmlns="http://www.w3.org/2000/svg">
<path d="M51.4673 3.88075C50.2077 3.88148 48.9941 4.33611 48.0662 5.15488L1.52052 44.5994C1.50594 44.6118 1.49152 44.6244 1.47726 44.6371C-0.0203624 45.9686 -0.368502 48.1417 0.385458 49.7276C1.13942 51.3146 2.9069 52.4492 4.91128 52.4501H16.9128V90.5731C16.9128 93.1758 19.2695 95.1172 21.8537 95.1182H81.1447C83.7289 95.1182 86.0856 93.1758 86.0856 90.5741V52.4501H98.0882C100.093 52.4501 101.86 51.3156 102.614 49.7286C103.368 48.1427 103.02 45.9686 101.522 44.6371C101.508 44.6244 101.493 44.6118 101.479 44.5994L54.9343 5.15488C53.9897 4.32109 52.7496 3.86536 51.4673 3.88075ZM51.5002 27.9249C62.4182 27.9249 71.3617 36.4983 71.3617 46.9616C71.3617 49.4811 70.8395 51.8908 69.8991 54.0975C69.6967 54.6795 69.4431 55.2439 69.141 55.7845L53.9073 80.7028C52.2985 82.7986 51.013 83.2599 49.0777 80.8315L35.2654 57.8823C32.9066 54.692 31.6391 50.8754 31.6387 46.9616C31.6387 36.4973 40.5822 27.9239 51.5002 27.9239M51.5002 36.8438C45.621 36.8438 40.9448 41.3255 40.9448 46.9606C40.9448 52.5947 45.621 57.0764 51.5002 57.0764C57.3795 57.0764 62.0557 52.5947 62.0557 46.9606C62.0557 41.3255 57.3795 36.8438 51.5002 36.8438Z" fill="black"/>
</svg>
