<svg width="117" height="107" viewBox="0 0 117 107" fill="none" xmlns="http://www.w3.org/2000/svg">
<path fill-rule="evenodd" clip-rule="evenodd" d="M61.0155 9.6746C60.3363 9.0857 59.436 8.75745 58.5 8.75745C57.5641 8.75745 56.6638 9.0857 55.9845 9.6746C45.6362 18.6621 31.8539 23.5905 17.5842 23.4063C16.8068 23.397 16.0464 23.6147 15.4134 24.0275C14.7805 24.4404 14.3079 25.0271 14.0644 25.7023C12.007 31.4365 10.962 37.4338 10.9688 43.4688C10.9688 69.9602 30.7808 92.2117 57.5884 98.5203C58.1864 98.6613 58.8137 98.6613 59.4117 98.5203C86.2193 92.2117 106.031 69.9602 106.031 43.4688C106.031 37.2717 104.944 31.2975 102.936 25.7023C102.693 25.0262 102.221 24.4386 101.588 24.0249C100.955 23.6111 100.194 23.3929 99.4159 23.4018L98.7188 23.4063C84.1133 23.4063 70.8484 18.19 61.0155 9.6746ZM76.0988 45.4126C76.3913 45.0562 76.6029 44.6498 76.7213 44.2175C76.8396 43.7852 76.8622 43.3357 76.7879 42.8952C76.7135 42.4548 76.5436 42.0324 76.2882 41.6529C76.0328 41.2734 75.697 40.9444 75.3005 40.6852C74.9041 40.4261 74.455 40.242 73.9797 40.1439C73.5043 40.0457 73.0123 40.0355 72.5326 40.1137C72.0529 40.1919 71.5951 40.3571 71.1861 40.5994C70.7772 40.8418 70.4253 41.1564 70.1513 41.5249L54.3758 61.7212L46.4588 54.4809C45.7657 53.8902 44.849 53.5687 43.9017 53.5839C42.9545 53.5992 42.0508 53.9502 41.3809 54.5628C40.711 55.1754 40.3273 56.0019 40.3105 56.8682C40.2938 57.7345 40.6454 58.5728 41.2913 59.2067L52.26 69.2379C52.6354 69.5809 53.0878 69.8451 53.586 70.0121C54.0841 70.1791 54.6161 70.245 55.1449 70.2051C55.6737 70.1652 56.1866 70.0206 56.6482 69.7812C57.1097 69.5418 57.5087 69.2134 57.8175 68.8189L76.0988 45.4126Z" fill="black"/>
</svg>
