<svg width="278" height="88" viewBox="0 0 278 88" fill="none" xmlns="http://www.w3.org/2000/svg">
<g clip-path="url(#clip0_33_36)">
<path fill-rule="evenodd" clip-rule="evenodd" d="M2.24142 16.6808L1.67104 18.4396C-0.797546 26.0517 1.66098 35.4343 6.74358 37.7983L17.411 42.7598C16.6887 45.136 16.3037 47.6333 16.3037 50.2097C16.3037 66.1101 30.9709 79 49.0638 79C67.1567 79 81.8239 66.1101 81.8239 50.2097C81.8239 47.8571 81.5028 45.5704 80.897 43.3816L92.5851 38.0489C97.9637 35.6391 100.391 25.4614 97.422 17.7703L96.4836 15.3398C94.4086 9.96504 90.3614 7.72367 86.7626 9.7211C86.0338 10.1256 85.474 10.7655 84.977 11.4348L71.6619 29.3656C65.7835 24.442 57.8253 21.4194 49.0638 21.4194C40.5568 21.4194 32.8072 24.2689 26.9834 28.9412L14.0513 11.8506C13.5722 11.2173 13.0358 10.6113 12.3464 10.2171C8.51486 8.02595 4.18716 10.6809 2.24142 16.6808ZM22.9379 45.3303C22.5213 46.92 22.3037 48.5554 22.3037 50.2097C22.3037 62.0917 33.5329 73 49.0638 73C64.5946 73 75.8239 62.0917 75.8239 50.2097C75.8239 48.7591 75.6565 47.323 75.3344 45.9195L69.6802 48.4992C69.7999 48.8977 69.8638 49.3181 69.8638 49.7524C69.8638 52.3058 67.6521 54.3758 64.9238 54.3758C63.2887 54.3758 61.8391 53.6323 60.94 52.4869L51.1885 56.936L68.0779 34.1919C63.3415 30.0746 56.7262 27.4194 49.0638 27.4194C41.6953 27.4194 35.295 29.8748 30.6029 33.7246L46.1724 54.3008C46.5383 54.7843 46.9585 55.2237 47.3783 55.6627C47.5083 55.7985 47.6381 55.9344 47.7664 56.0714C48.037 56.3608 48.2562 56.6306 48.4477 56.8664C48.4576 56.8786 48.4674 56.8907 48.4772 56.9027C48.2679 56.8492 48.0497 56.7879 47.815 56.7221L47.7936 56.7161C47.1967 56.5486 46.6108 56.3407 46.0486 56.0792L39.3552 52.9661C38.457 53.8354 37.1978 54.3758 35.8037 54.3758C33.0754 54.3758 30.8637 52.3058 30.8637 49.7524C30.8637 49.5114 30.8834 49.2746 30.9214 49.0435L22.9379 45.3303ZM48.8389 56.9887C48.7205 56.9631 48.6004 56.9343 48.4772 56.9027C48.5117 56.9452 48.5454 56.9865 48.5783 57.0266C47.2172 57.2534 46.2389 57.8802 46.2389 58.6179C46.2389 59.5468 47.7901 60.2998 49.7036 60.2998C51.617 60.2998 53.1682 59.5468 53.1682 58.6179C53.1682 57.9169 52.2848 57.316 51.0289 57.0634C51.0807 57.0228 51.1338 56.9804 51.1885 56.936C51.0546 56.9701 50.9264 56.9987 50.8029 57.0223C50.4575 56.9663 50.0878 56.9359 49.7036 56.9359C49.405 56.9359 49.1153 56.9542 48.8389 56.9887Z" fill="#FBB124"/>
<path d="M105.494 66.7039C104.598 66.7039 104.02 65.8719 103.761 64.2079C103.631 63.4825 103.566 62.8212 103.565 62.2239L103.562 60.8159C103.431 59.4079 103.365 58.0425 103.362 56.7199C103.184 52.7946 103.029 50.0212 102.898 48.3999C102.897 47.6746 102.852 46.9066 102.765 46.0959C102.678 45.2426 102.613 44.6452 102.57 44.3039L102.531 24.0799C102.53 23.6959 102.679 23.4613 102.977 23.3759H103.361L103.553 23.4399C105.047 23.4399 107.009 23.3759 109.441 23.2479C112.683 23.1626 115.393 23.1199 117.569 23.1199H118.209C118.465 23.1626 118.891 23.1839 119.489 23.1839H120.641H121.281C122.561 23.1839 123.564 23.2053 124.289 23.2479H130.881C131.692 23.3333 133.015 23.3759 134.849 23.3759C135.191 23.3759 135.447 23.3973 135.617 23.4399C135.959 23.5253 136.343 23.5679 136.77 23.5679C136.94 23.5679 137.111 23.5039 137.281 23.3759C138.263 23.3759 138.798 24.2719 138.886 26.0639C138.973 26.6613 139.016 27.1093 139.017 27.4079C139.018 27.6639 138.976 28.1759 138.892 28.9439C138.851 29.6266 138.831 30.7146 138.834 32.2079C138.835 32.6773 138.431 32.9546 137.62 33.0399C137.407 33.0826 137.044 33.1039 136.532 33.1039H135.636H132.756L130.836 33.1679C130.41 33.2959 129.749 33.3599 128.853 33.3599C127.957 33.3599 127.445 33.3386 127.317 33.2959C127.189 33.3386 127.082 33.3813 126.997 33.4239C126.954 33.4666 126.912 33.4879 126.869 33.4879C126.869 33.5733 126.848 33.6586 126.805 33.7439C126.763 33.8293 126.742 33.9573 126.742 34.1279C126.7 34.4266 126.596 35.5359 126.429 37.4559C126.387 38.0106 126.368 38.9919 126.37 40.3999L126.307 40.5279C126.307 40.6986 126.393 40.8906 126.564 41.1039H134.244C134.756 41.1039 135.119 41.1679 135.332 41.2959C135.588 41.4239 135.781 41.6586 135.909 41.9999C136.081 42.5119 136.169 43.8346 136.173 45.9679L136.179 49.0399L136.183 50.7679C136.098 51.1519 135.97 51.4079 135.8 51.5359C135.672 51.6639 135.48 51.7279 135.224 51.7279C134.883 51.7279 134.563 51.7706 134.265 51.8559L131.385 52.0479H130.105C129.465 52.0479 129.038 52.0906 128.825 52.1759C128.527 52.2612 128.122 52.3252 127.61 52.3679H126.714C126.031 52.3679 125.562 52.4532 125.306 52.6239C125.093 52.6666 124.88 52.8799 124.667 53.2639C124.675 57.1465 124.637 59.7919 124.555 61.1999C124.516 63.2479 124.306 64.7412 123.924 65.6799C123.156 65.6799 122.046 65.7225 120.596 65.8079C119.913 65.8079 119.465 65.8505 119.252 65.9359H118.612H118.484C118.313 65.9359 118.185 65.9145 118.1 65.8719C118.015 65.8292 117.929 65.8079 117.844 65.8079L117.652 65.7439C117.652 65.7012 117.566 65.6799 117.396 65.6799C117.353 65.6799 117.268 65.7012 117.14 65.7439C117.054 65.7865 116.969 65.8505 116.884 65.9359H111.572C111.53 65.9785 111.423 65.9999 111.252 65.9999C111.124 66.0425 110.932 66.1065 110.677 66.1919L106.773 66.6399L105.494 66.7039ZM145.37 66.1919C144.986 66.1919 144.687 66.1492 144.474 66.0639H143.322H142.362H141.914L139.481 65.4879L139.288 65.0399L139.287 64.3999L139.219 62.6719C139.132 61.9039 139.088 61.2425 139.087 60.6879L139.014 55.8239C138.97 55.3545 138.948 54.7146 138.946 53.9039C138.942 51.9412 139.003 50.0426 139.127 48.2079C139.21 47.0132 139.249 45.0932 139.244 42.4479C139.243 42.0212 139.2 41.6586 139.114 41.3599L139.112 40.7199L139.048 40.3359C139.046 39.3546 139.108 38.3946 139.234 37.4559L139.292 34.0639L139.225 32.5279L139.222 31.0559C139.093 30.9279 139.029 30.7786 139.029 30.6079C139.028 29.9679 139.539 29.4986 140.562 29.1999C141.159 29.0293 141.906 28.9439 142.802 28.9439H152.146L156.498 29.0079C156.498 29.0079 156.519 29.0293 156.562 29.0719C156.647 29.1146 156.733 29.1786 156.818 29.2639C157.16 29.6053 157.502 30.0533 157.845 30.6079C158.23 31.2479 158.551 31.9306 158.809 32.6559C159.109 33.5093 159.688 35.0026 160.545 37.1359C161.232 38.8852 161.81 40.2719 162.282 41.2959C162.625 42.4052 163.01 42.9599 163.437 42.9599C163.821 42.9599 164.119 42.6826 164.331 42.1279C164.416 42.0426 164.544 41.7652 164.714 41.2959L165.733 38.9279C165.818 38.7572 166.115 38.1172 166.625 37.0079C166.753 36.7946 167.114 36.0266 167.709 34.7039L168.665 32.6559C168.75 32.3999 168.877 32.0799 169.047 31.6959C169.217 31.3119 169.408 30.9493 169.621 30.6079C170.046 29.9253 170.387 29.4773 170.642 29.2639C170.727 29.0933 170.855 29.0079 171.026 29.0079L175.378 28.9439H184.658H185.426H186.002H186.77C186.94 28.9866 187.324 29.0079 187.922 29.0079C187.964 29.0079 188.05 29.2853 188.179 29.8399C188.312 32.0159 188.379 33.7653 188.382 35.0879C188.47 36.7093 188.517 39.1626 188.524 42.4479L188.53 45.6479C188.534 47.5679 188.369 50.3199 188.034 53.9039L188.038 55.8239C188.082 56.3785 188.104 57.1465 188.106 58.1279L188.176 60.8159C188.219 61.3279 188.242 62.0105 188.244 62.8639C188.245 63.6319 188.267 64.1439 188.311 64.3999L188.312 65.0399L188.121 65.4879L185.69 66.0639H185.178H184.282H183.194C182.938 66.1492 182.618 66.1919 182.234 66.1919C180.57 66.1919 178.863 66.1279 177.114 65.9999C175.364 65.8292 174.276 65.7225 173.849 65.6799L173.593 65.7439H173.273C173.017 65.7439 172.888 65.3385 172.887 64.5279C172.671 63.4185 172.56 60.9652 172.553 57.1679C172.465 56.1012 172.42 54.6506 172.416 52.8159C172.415 52.5172 172.266 52.3679 171.967 52.3679C171.839 52.3679 171.712 52.5386 171.584 52.8799C170.947 54.4159 170.565 55.3759 170.438 55.7599L169.992 57.1039L169.482 58.1279C168.718 59.8345 167.888 61.1572 166.994 62.0959C166.441 62.6505 165.865 62.9279 165.268 62.9279H164.436H163.284C162.729 62.9279 162.324 62.9065 162.068 62.8639C161.598 62.8639 161.257 62.8425 161.043 62.7999C159.546 60.4959 158.154 57.9572 156.869 55.1839C156.697 54.6719 156.525 54.2452 156.354 53.9039C156.225 53.5626 156.118 53.2639 156.032 53.0079C155.733 52.5812 155.583 52.3679 155.583 52.3679C155.285 52.3679 155.135 52.5172 155.136 52.8159L155.141 55.3759C155.146 57.9785 155.128 59.8559 155.088 61.0079C155.092 62.8425 154.966 64.2079 154.712 65.1039C154.67 65.2745 154.606 65.4239 154.521 65.5519C154.478 65.6799 154.415 65.7439 154.329 65.7439H154.009L153.753 65.6799C153.369 65.7225 152.303 65.8292 150.554 65.9999C148.847 66.1279 147.119 66.1919 145.37 66.1919ZM211.283 73.9358C211.027 73.9358 210.386 73.7652 209.362 73.4238C209.191 73.3812 208.935 73.2745 208.593 73.1038C208.294 72.9758 208.017 72.9118 207.761 72.9118C207.59 72.9118 207.291 72.8052 206.864 72.5918C206.565 72.3785 206.287 72.2719 206.031 72.2719L205.263 72.0799C205.007 72.0799 204.836 72.0585 204.751 72.0159C204.623 72.0159 204.559 71.9945 204.559 71.9519C203.193 71.6532 201.805 71.1625 200.396 70.4799L196.233 68.7519C195.934 68.6239 195.784 68.4105 195.783 68.1119C195.783 67.8559 195.846 67.5999 195.974 67.3439L197.696 64.3359C198.121 63.5252 198.717 62.5652 199.482 61.4559C199.78 61.1572 200.078 60.6239 200.375 59.8559C200.63 59.2585 200.757 58.8959 200.757 58.7679C200.115 57.5305 199.301 56.2079 198.317 54.7999C197.333 53.0932 196.541 51.9626 195.943 51.4079C195.857 51.1946 195.664 50.8532 195.365 50.3839C194.68 49.1892 194.359 48.6346 194.402 48.7199L193.31 46.7999C193.01 46.3732 192.646 45.7332 192.218 44.8799C191.961 44.4532 191.683 43.9199 191.383 43.2799C190.998 42.6399 190.784 42.2559 190.741 42.1279C190.399 41.7439 189.821 40.7199 189.007 39.0559C188.235 37.3493 187.849 36.3253 187.849 35.9839C187.848 35.8133 188.019 35.5999 188.36 35.3439C188.7 35.0453 189.084 34.7466 189.51 34.4479C190.874 33.8079 191.769 33.4239 192.196 33.2959C192.75 33.0399 193.219 32.8266 193.602 32.6559C194.029 32.4853 194.37 32.3359 194.625 32.2079C195.606 31.7386 196.97 31.1626 198.718 30.4799C199.059 30.3093 199.869 29.9679 201.148 29.4559C201.617 29.3279 202.044 29.2639 202.428 29.2639C202.684 29.2639 202.897 29.3493 203.068 29.5199C203.239 29.6053 203.496 29.9466 203.838 30.5439L206.088 35.4079C207.373 38.0959 208.272 39.9092 208.786 40.8479C208.872 40.9759 208.957 41.1466 209.043 41.3599C209.129 41.5306 209.214 41.6586 209.3 41.7439C209.557 42.0852 209.792 42.2559 210.005 42.2559C210.133 42.2559 210.24 42.1919 210.325 42.0639C210.452 41.9359 210.537 41.8292 210.58 41.7439L214.91 30.2879C215.079 29.7333 215.441 29.3066 215.995 29.0079C216.464 28.7093 217.04 28.6026 217.723 28.6879C220.498 29.5839 222.547 30.3093 223.871 30.8639C226.476 31.9306 228.397 32.8693 229.636 33.6799C230.063 33.8933 230.341 34.1706 230.47 34.5119C230.641 34.8106 230.663 35.1093 230.536 35.4079C230.494 35.7919 230.388 36.1119 230.217 36.3679L229.835 37.1359L219.638 59.3439L219.129 60.6239L212.88 72.5918C212.582 73.1038 212.306 73.4452 212.05 73.6158C211.837 73.8292 211.581 73.9358 211.283 73.9358Z" fill="#FBB124"/>
</g>
<defs>
<clipPath id="clip0_33_36">
<rect width="277" height="87" fill="white" transform="translate(0.703613 0.5)"/>
</clipPath>
</defs>
</svg>
