<svg width="233" height="87" viewBox="0 0 233 87" fill="none" xmlns="http://www.w3.org/2000/svg">
<g clip-path="url(#clip0_35_472)">
<path fill-rule="evenodd" clip-rule="evenodd" d="M1.53781 16.1808L0.96743 17.9396C-1.50116 25.5517 0.957363 34.9343 6.03997 37.2983L16.7074 42.2598C15.9851 44.636 15.6 47.1333 15.6 49.7097C15.6 65.6101 30.2672 78.5 48.3602 78.5C66.4531 78.5 81.1203 65.6101 81.1203 49.7097C81.1203 47.3571 80.7992 45.0704 80.1934 42.8816L91.8815 37.5489C97.2601 35.1391 99.6877 24.9614 96.7183 17.2703L95.78 14.8398C93.705 9.46504 89.6578 7.22367 86.059 9.2211C85.3302 9.62562 84.7704 10.2655 84.2734 10.9348L70.9583 28.8656C65.0799 23.942 57.1217 20.9194 48.3602 20.9194C39.8532 20.9194 32.1036 23.7689 26.2798 28.4412L13.3477 11.3506C12.8686 10.7173 12.3321 10.1113 11.6428 9.71707C7.81125 7.52595 3.48355 10.1809 1.53781 16.1808ZM22.2343 44.8303C21.8177 46.42 21.6 48.0554 21.6 49.7097C21.6 61.5917 32.8293 72.5 48.3602 72.5C63.891 72.5 75.1203 61.5917 75.1203 49.7097C75.1203 48.2591 74.9529 46.823 74.6308 45.4195L68.9766 47.9992C69.0962 48.3977 69.1602 48.8181 69.1602 49.2524C69.1602 51.8058 66.9485 53.8758 64.2202 53.8758C62.5851 53.8758 61.1355 53.1323 60.2364 51.9869L50.4848 56.436L67.3743 33.6919C62.6379 29.5746 56.0226 26.9194 48.3602 26.9194C40.9917 26.9194 34.5914 29.3748 29.8993 33.2246L45.4688 53.8008C45.8347 54.2843 46.2549 54.7237 46.6747 55.1627C46.8046 55.2985 46.9345 55.4344 47.0627 55.5714C47.3334 55.8608 47.5526 56.1306 47.744 56.3664C47.754 56.3786 47.7638 56.3907 47.7736 56.4027C47.5643 56.3492 47.346 56.2879 47.1114 56.2221L47.09 56.2161C46.4931 56.0486 45.9072 55.8407 45.345 55.5792L38.6516 52.4661C37.7534 53.3354 36.4942 53.8758 35.1001 53.8758C32.3718 53.8758 30.1601 51.8058 30.1601 49.2524C30.1601 49.0114 30.1798 48.7746 30.2178 48.5435L22.2343 44.8303ZM48.1353 56.4887C48.0169 56.4631 47.8968 56.4343 47.7736 56.4027C47.8081 56.4452 47.8417 56.4865 47.8747 56.5266C46.5136 56.7534 45.5353 57.3802 45.5353 58.1179C45.5353 59.0468 47.0865 59.7998 49 59.7998C50.9134 59.7998 52.4646 59.0468 52.4646 58.1179C52.4646 57.4169 51.5812 56.816 50.3253 56.5634C50.3771 56.5228 50.4302 56.4804 50.4848 56.436C50.351 56.4701 50.2228 56.4987 50.0993 56.5223C49.7539 56.4663 49.3842 56.4359 49 56.4359C48.7014 56.4359 48.4117 56.4542 48.1353 56.4887Z" fill="white"/>
<path d="M104.79 66.2039C103.894 66.2039 103.316 65.3719 103.057 63.7079C102.928 62.9825 102.862 62.3212 102.861 61.7239L102.859 60.3159C102.728 58.9079 102.661 57.5425 102.659 56.2199C102.48 52.2946 102.325 49.5212 102.194 47.8999C102.193 47.1746 102.149 46.4066 102.062 45.5959C101.975 44.7426 101.91 44.1452 101.866 43.8039L101.827 23.5799C101.826 23.1959 101.975 22.9613 102.274 22.8759H102.658L102.85 22.9399C104.343 22.9399 106.306 22.8759 108.737 22.7479C111.98 22.6626 114.689 22.6199 116.865 22.6199H117.505C117.761 22.6626 118.188 22.6839 118.785 22.6839H119.937H120.577C121.857 22.6839 122.86 22.7053 123.585 22.7479H130.177C130.988 22.8333 132.311 22.8759 134.146 22.8759C134.487 22.8759 134.743 22.8973 134.914 22.9399C135.255 23.0253 135.639 23.0679 136.066 23.0679C136.237 23.0679 136.407 23.0039 136.578 22.8759C137.559 22.8759 138.094 23.7719 138.183 25.5639C138.269 26.1613 138.313 26.6093 138.313 26.9079C138.314 27.1639 138.272 27.6759 138.188 28.4439C138.147 29.1266 138.128 30.2146 138.131 31.7079C138.132 32.1773 137.727 32.4546 136.916 32.5399C136.703 32.5826 136.341 32.6039 135.829 32.6039H134.933H132.053L130.133 32.6679C129.706 32.7959 129.045 32.8599 128.149 32.8599C127.253 32.8599 126.741 32.8386 126.613 32.7959C126.485 32.8386 126.378 32.8813 126.293 32.9239C126.251 32.9666 126.208 32.9879 126.165 32.9879C126.165 33.0733 126.144 33.1586 126.102 33.2439C126.059 33.3293 126.038 33.4573 126.039 33.6279C125.996 33.9266 125.892 35.0359 125.725 36.9559C125.683 37.5106 125.664 38.4919 125.667 39.8999L125.603 40.0279C125.603 40.1986 125.689 40.3906 125.86 40.6039H133.54C134.052 40.6039 134.415 40.6679 134.628 40.7959C134.885 40.9239 135.077 41.1586 135.206 41.4999C135.378 42.0119 135.465 43.3346 135.47 45.4679L135.476 48.5399L135.479 50.2679C135.394 50.6519 135.267 50.9079 135.096 51.0359C134.969 51.1639 134.777 51.2279 134.521 51.2279C134.179 51.2279 133.86 51.2706 133.561 51.3559L130.681 51.5479H129.401C128.761 51.5479 128.335 51.5906 128.122 51.6759C127.823 51.7612 127.418 51.8252 126.906 51.8679H126.01C125.327 51.8679 124.858 51.9532 124.603 52.1239C124.389 52.1666 124.176 52.3799 123.964 52.7639C123.971 56.6465 123.934 59.2919 123.851 60.6999C123.813 62.7479 123.602 64.2412 123.22 65.1799C122.452 65.1799 121.343 65.2225 119.892 65.3079C119.21 65.3079 118.762 65.3505 118.548 65.4359H117.908H117.78C117.61 65.4359 117.482 65.4145 117.396 65.3719C117.311 65.3292 117.226 65.3079 117.14 65.3079L116.948 65.2439C116.948 65.2012 116.863 65.1799 116.692 65.1799C116.649 65.1799 116.564 65.2012 116.436 65.2439C116.351 65.2865 116.266 65.3505 116.18 65.4359H110.868C110.826 65.4785 110.719 65.4999 110.549 65.4999C110.421 65.5425 110.229 65.6065 109.973 65.6919L106.07 66.1399L104.79 66.2039ZM144.666 65.6919C144.282 65.6919 143.984 65.6492 143.77 65.5639H142.618H141.658H141.21L138.777 64.9879L138.584 64.5399L138.583 63.8999L138.516 62.1719C138.429 61.4039 138.385 60.7425 138.384 60.1879L138.31 55.3239C138.267 54.8545 138.244 54.2146 138.243 53.4039C138.239 51.4412 138.299 49.5426 138.423 47.7079C138.506 46.5132 138.545 44.5932 138.54 41.9479C138.539 41.5212 138.496 41.1586 138.41 40.8599L138.409 40.2199L138.344 39.8359C138.342 38.8546 138.404 37.8946 138.531 36.9559L138.588 33.5639L138.521 32.0279L138.518 30.5559C138.39 30.4279 138.325 30.2786 138.325 30.1079C138.324 29.4679 138.835 28.9986 139.858 28.6999C140.455 28.5293 141.202 28.4439 142.098 28.4439H151.442L155.794 28.5079C155.794 28.5079 155.815 28.5293 155.858 28.5719C155.944 28.6146 156.029 28.6786 156.115 28.7639C156.457 29.1053 156.799 29.5533 157.141 30.1079C157.526 30.7479 157.848 31.4306 158.105 32.1559C158.405 33.0093 158.984 34.5026 159.842 36.6359C160.528 38.3852 161.107 39.7719 161.578 40.7959C161.921 41.9052 162.307 42.4599 162.733 42.4599C163.117 42.4599 163.415 42.1826 163.628 41.6279C163.713 41.5426 163.84 41.2652 164.01 40.7959L165.029 38.4279C165.114 38.2572 165.412 37.6172 165.922 36.5079C166.049 36.2946 166.41 35.5266 167.005 34.2039L167.961 32.1559C168.046 31.8999 168.173 31.5799 168.343 31.1959C168.513 30.8119 168.704 30.4493 168.917 30.1079C169.343 29.4253 169.683 28.9773 169.939 28.7639C170.024 28.5933 170.151 28.5079 170.322 28.5079L174.674 28.4439H183.954H184.722H185.298H186.066C186.237 28.4866 186.621 28.5079 187.218 28.5079C187.261 28.5079 187.347 28.7853 187.476 29.3399C187.608 31.5159 187.675 33.2653 187.678 34.5879C187.766 36.2093 187.814 38.6626 187.82 41.9479L187.826 45.1479C187.83 47.0679 187.665 49.8199 187.331 53.4039L187.334 55.3239C187.378 55.8785 187.401 56.6465 187.403 57.6279L187.472 60.3159C187.516 60.8279 187.538 61.5105 187.54 62.3639C187.542 63.1319 187.564 63.6439 187.607 63.8999L187.608 64.5399L187.417 64.9879L184.986 65.5639H184.474H183.578H182.49C182.234 65.6492 181.914 65.6919 181.53 65.6919C179.866 65.6919 178.16 65.6279 176.41 65.4999C174.66 65.3292 173.572 65.2225 173.145 65.1799L172.89 65.2439H172.57C172.314 65.2439 172.185 64.8385 172.183 64.0279C171.968 62.9185 171.856 60.4652 171.849 56.6679C171.761 55.6012 171.716 54.1506 171.712 52.3159C171.712 52.0172 171.562 51.8679 171.264 51.8679C171.136 51.8679 171.008 52.0386 170.881 52.3799C170.244 53.9159 169.861 54.8759 169.734 55.2599L169.289 56.6039L168.779 57.6279C168.014 59.3345 167.185 60.6572 166.291 61.5959C165.737 62.1505 165.161 62.4279 164.564 62.4279H163.732H162.58C162.025 62.4279 161.62 62.4065 161.364 62.3639C160.895 62.3639 160.553 62.3425 160.34 62.2999C158.842 59.9959 157.45 57.4572 156.165 54.6839C155.993 54.1719 155.822 53.7452 155.651 53.4039C155.522 53.0626 155.415 52.7639 155.329 52.5079C155.029 52.0812 154.88 51.8679 154.88 51.8679C154.581 51.8679 154.432 52.0172 154.432 52.3159L154.437 54.8759C154.442 57.4785 154.425 59.3559 154.384 60.5079C154.388 62.3425 154.263 63.7079 154.008 64.6039C153.966 64.7745 153.902 64.9239 153.817 65.0519C153.775 65.1799 153.711 65.2439 153.626 65.2439H153.306L153.049 65.1799C152.666 65.2225 151.599 65.3292 149.85 65.4999C148.144 65.6279 146.416 65.6919 144.666 65.6919ZM210.579 73.4358C210.323 73.4358 209.683 73.2652 208.658 72.9238C208.487 72.8812 208.231 72.7745 207.889 72.6038C207.591 72.4758 207.313 72.4118 207.057 72.4118C206.886 72.4118 206.588 72.3052 206.16 72.0918C205.861 71.8785 205.584 71.7719 205.328 71.7719L204.559 71.5799C204.303 71.5799 204.133 71.5585 204.047 71.5159C203.919 71.5159 203.855 71.4945 203.855 71.4519C202.489 71.1532 201.102 70.6625 199.692 69.9799L195.529 68.2519C195.23 68.1239 195.08 67.9105 195.08 67.6119C195.079 67.3559 195.143 67.0999 195.27 66.8439L196.992 63.8359C197.417 63.0252 198.013 62.0652 198.779 60.9559C199.077 60.6572 199.374 60.1239 199.672 59.3559C199.926 58.7585 200.054 58.3959 200.054 58.2679C199.411 57.0305 198.598 55.7079 197.614 54.2999C196.629 52.5932 195.838 51.4626 195.239 50.9079C195.153 50.6946 194.961 50.3532 194.661 49.8839C193.976 48.6892 193.655 48.1346 193.698 48.2199L192.606 46.2999C192.307 45.8732 191.943 45.2332 191.514 44.3799C191.258 43.9532 190.979 43.4199 190.679 42.7799C190.294 42.1399 190.08 41.7559 190.037 41.6279C189.695 41.2439 189.117 40.2199 188.303 38.5559C187.532 36.8493 187.146 35.8253 187.145 35.4839C187.145 35.3133 187.315 35.0999 187.656 34.8439C187.997 34.5453 188.38 34.2466 188.806 33.9479C190.17 33.3079 191.065 32.9239 191.492 32.7959C192.046 32.5399 192.515 32.3266 192.899 32.1559C193.325 31.9853 193.666 31.8359 193.922 31.7079C194.902 31.2386 196.266 30.6626 198.014 29.9799C198.355 29.8093 199.165 29.4679 200.444 28.9559C200.914 28.8279 201.34 28.7639 201.724 28.7639C201.98 28.7639 202.194 28.8493 202.365 29.0199C202.535 29.1053 202.792 29.4466 203.135 30.0439L205.384 34.9079C206.669 37.5959 207.569 39.4092 208.083 40.3479C208.168 40.4759 208.254 40.6466 208.34 40.8599C208.425 41.0306 208.511 41.1586 208.596 41.2439C208.853 41.5852 209.088 41.7559 209.301 41.7559C209.429 41.7559 209.536 41.6919 209.621 41.5639C209.749 41.4359 209.834 41.3292 209.876 41.2439L214.206 29.7879C214.376 29.2333 214.737 28.8066 215.292 28.5079C215.76 28.2093 216.336 28.1026 217.019 28.1879C219.794 29.0839 221.843 29.8093 223.167 30.3639C225.772 31.4306 227.694 32.3693 228.933 33.1799C229.36 33.3933 229.638 33.6706 229.766 34.0119C229.938 34.3106 229.959 34.6093 229.832 34.9079C229.79 35.2919 229.684 35.6119 229.514 35.8679L229.131 36.6359L218.935 58.8439L218.425 60.1239L212.176 72.0918C211.879 72.6038 211.602 72.9452 211.346 73.1158C211.134 73.3292 210.878 73.4358 210.579 73.4358Z" fill="white"/>
</g>
<defs>
<clipPath id="clip0_35_472">
<rect width="233" height="87" fill="white"/>
</clipPath>
</defs>
</svg>
