<svg width="181" height="73" viewBox="0 0 181 73" fill="none" xmlns="http://www.w3.org/2000/svg">
<path d="M4.31846 61.9898C3.05846 61.9898 2.24618 60.8198 1.88162 58.4798C1.69963 57.4598 1.60782 56.5298 1.60618 55.6898L1.60233 53.7098C1.41847 51.7298 1.32473 49.8098 1.3211 47.9498C1.07035 42.4298 0.852752 38.5299 0.66831 36.2499C0.666323 35.2299 0.604219 34.1499 0.481998 33.0099C0.359661 31.8099 0.268024 30.9699 0.207089 30.4899L0.151683 2.04992C0.150631 1.50992 0.359988 1.17992 0.779754 1.05992H1.31975L1.58993 1.14992C3.68993 1.14992 6.44975 1.05992 9.8694 0.879922C14.4292 0.759923 18.2391 0.699924 21.2991 0.699924H22.1991C22.5592 0.759923 23.1592 0.789923 23.9992 0.789923H25.6192H26.5192C28.3192 0.789923 29.7293 0.819923 30.7494 0.879922H40.0194C41.1596 0.999923 43.0198 1.05992 45.5998 1.05992C46.0798 1.05992 46.4398 1.08992 46.6799 1.14992C47.1602 1.26992 47.7003 1.32992 48.3003 1.32992C48.5403 1.32992 48.7801 1.23992 49.0198 1.05992C50.3998 1.05992 51.1522 2.31992 51.2771 4.83992C51.3988 5.67991 51.46 6.30991 51.4608 6.72991C51.4615 7.08991 51.4029 7.80991 51.285 8.8899C51.2269 9.8499 51.1999 11.3799 51.204 13.4799C51.2052 14.1399 50.636 14.5299 49.4962 14.6499C49.1963 14.7099 48.6864 14.7399 47.9664 14.7399H46.7064H42.6564L39.9566 14.8299C39.3569 15.0099 38.4271 15.0999 37.1671 15.0999C35.9071 15.0999 35.187 15.0699 35.0069 15.0099C34.8271 15.0699 34.6772 15.1299 34.5573 15.1899C34.4974 15.2499 34.4375 15.2799 34.3775 15.2799C34.3777 15.3999 34.3479 15.5199 34.2882 15.6399C34.2284 15.7599 34.1987 15.9399 34.1992 16.1799C34.14 16.5999 33.9931 18.1599 33.7583 20.8599C33.6998 21.6399 33.6725 23.0199 33.6764 24.9999L33.5867 25.1799C33.5872 25.4199 33.7077 25.6899 33.9483 25.9899H44.7483C45.4683 25.9899 45.9785 26.0799 46.2789 26.2599C46.6392 26.4399 46.9098 26.7699 47.0908 27.2499C47.3322 27.9699 47.4558 29.8299 47.4616 32.8299L47.4701 37.1499L47.4748 39.5798C47.3559 40.1198 47.1766 40.4798 46.9369 40.6598C46.7573 40.8398 46.4874 40.9298 46.1274 40.9298C45.6474 40.9298 45.1975 40.9898 44.7778 41.1098L40.7283 41.3798H38.9283C38.0283 41.3798 37.4284 41.4398 37.1287 41.5598C36.7089 41.6798 36.1391 41.7698 35.4192 41.8298H34.1592C33.1992 41.8298 32.5394 41.9498 32.1799 42.1898C31.88 42.2498 31.5806 42.5498 31.2816 43.0898C31.2923 48.5498 31.2395 52.2698 31.1234 54.2498C31.069 57.1298 30.7731 59.2298 30.2357 60.5498C29.1557 60.5498 27.5958 60.6098 25.556 60.7298C24.596 60.7298 23.9661 60.7898 23.6664 60.9098H22.7664H22.5864C22.3464 60.9098 22.1663 60.8798 22.0462 60.8198C21.9261 60.7598 21.806 60.7298 21.686 60.7298L21.4158 60.6398C21.4157 60.5798 21.2957 60.5498 21.0557 60.5498C20.9957 60.5498 20.8757 60.5798 20.6958 60.6398C20.5759 60.6998 20.4561 60.7898 20.3364 60.9098H12.8664C12.8065 60.9698 12.6565 60.9998 12.4165 60.9998C12.2366 61.0598 11.9668 61.1498 11.6071 61.2698L6.11828 61.8998L4.31846 61.9898ZM60.3948 61.2698C59.8548 61.2698 59.4347 61.2098 59.1344 61.0898H57.5144H56.1644H55.5344L52.1129 60.2798L51.8416 59.6498L51.8399 58.7498L51.7451 56.3198C51.623 55.2398 51.5612 54.3098 51.5597 53.5298L51.4564 46.6898C51.3951 46.0298 51.3633 45.1298 51.3611 43.9898C51.3557 41.2298 51.4405 38.5598 51.6155 35.9799C51.7322 34.2999 51.787 31.5999 51.7797 27.8799C51.7786 27.2799 51.7176 26.7699 51.5968 26.3499L51.595 25.4499L51.504 24.9099C51.5013 23.5299 51.5886 22.1799 51.7661 20.8599L51.8468 16.0899L51.7526 13.9299L51.7485 11.8599C51.5682 11.6799 51.4778 11.4699 51.4773 11.2299C51.4755 10.3299 52.1943 9.66991 53.6334 9.2499C54.473 9.0099 55.5227 8.8899 56.7827 8.8899H69.9227L76.0429 8.97991C76.0429 8.97991 76.073 9.00991 76.1331 9.06991C76.2532 9.12991 76.3734 9.21991 76.4936 9.33991C76.9746 9.81991 77.4558 10.4499 77.9373 11.2299C78.4791 12.1299 78.9309 13.0899 79.2929 14.1099C79.7153 15.3099 80.5293 17.4099 81.7352 20.4099C82.7 22.8699 83.5138 24.8199 84.1766 26.2599C84.6596 27.8199 85.2011 28.5999 85.8011 28.5999C86.3411 28.5999 86.7604 28.2099 87.0589 27.4299C87.1786 27.3099 87.3579 26.9199 87.5966 26.2599L89.0301 22.9299C89.1496 22.6899 89.5679 21.7899 90.2848 20.2299C90.4643 19.9299 90.9721 18.8499 91.8085 16.9899L93.1529 14.1099C93.2722 13.7499 93.4513 13.2999 93.6903 12.7599C93.9292 12.2199 94.1982 11.7099 94.4973 11.2299C95.0954 10.2699 95.5742 9.63991 95.9336 9.33991C96.0532 9.09991 96.2329 8.97991 96.4729 8.97991L102.593 8.8899H115.643H116.723H117.533H118.613C118.853 8.94991 119.393 8.97991 120.233 8.97991C120.293 8.97991 120.414 9.36991 120.595 10.1499C120.781 13.2099 120.876 15.6699 120.88 17.5299C121.004 19.8099 121.071 23.2599 121.08 27.8799L121.089 32.3799C121.094 35.0799 120.861 38.9499 120.391 43.9898L120.396 46.6898C120.458 47.4698 120.49 48.5498 120.493 49.9298L120.59 53.7098C120.651 54.4298 120.683 55.3898 120.686 56.5898C120.688 57.6698 120.719 58.3898 120.78 58.7498L120.782 59.6498L120.513 60.2798L117.094 61.0898H116.374H115.114H113.584C113.225 61.2098 112.775 61.2698 112.235 61.2698C109.895 61.2698 107.495 61.1798 105.034 60.9998C102.574 60.7598 101.044 60.6098 100.443 60.5498L100.084 60.6398H99.6336C99.2736 60.6398 99.0925 60.0698 99.0902 58.9298C98.7872 57.3698 98.6305 53.9198 98.6201 48.5798C98.4971 47.0798 98.4332 45.0398 98.4281 42.4598C98.4273 42.0398 98.2169 41.8298 97.7969 41.8298C97.6169 41.8298 97.4374 42.0698 97.2583 42.5498C96.3625 44.7098 95.8252 46.0598 95.6462 46.5998L95.0199 48.4898L94.3027 49.9298C93.2274 52.3298 92.061 54.1898 90.8036 55.5098C90.0251 56.2898 89.2158 56.6798 88.3758 56.6798H87.2058H85.5858C84.8058 56.6798 84.2358 56.6498 83.8757 56.5898C83.2157 56.5898 82.7356 56.5598 82.4355 56.4998C80.3292 53.2598 78.3722 49.6898 76.5646 45.7898C76.3232 45.0698 76.0821 44.4698 75.8411 43.9898C75.6602 43.5098 75.5094 43.0898 75.3887 42.7298C74.9675 42.1298 74.7569 41.8298 74.7569 41.8298C74.3369 41.8298 74.1273 42.0398 74.1281 42.4598L74.1352 46.0598C74.1423 49.7198 74.1174 52.3598 74.0606 53.9798C74.0656 56.5598 73.8894 58.4798 73.5318 59.7398C73.4723 59.9798 73.3827 60.1898 73.263 60.3698C73.2034 60.5498 73.1136 60.6398 72.9936 60.6398H72.5436L72.1834 60.5498C71.6435 60.6098 70.1438 60.7598 67.6843 60.9998C65.2846 61.1798 62.8548 61.2698 60.3948 61.2698ZM153.084 72.1598C152.724 72.1598 151.824 71.9198 150.383 71.4398C150.143 71.3798 149.783 71.2298 149.302 70.9898C148.882 70.8098 148.492 70.7198 148.132 70.7198C147.892 70.7198 147.471 70.5698 146.871 70.2698C146.45 69.9698 146.06 69.8198 145.7 69.8198L144.619 69.5498C144.259 69.5498 144.019 69.5198 143.899 69.4598C143.719 69.4598 143.629 69.4298 143.629 69.3698C141.708 68.9498 139.757 68.2598 137.775 67.2998L131.92 64.8698C131.5 64.6898 131.289 64.3898 131.288 63.9698C131.288 63.6098 131.377 63.2498 131.556 62.8898L133.978 58.6598C134.576 57.5198 135.413 56.1698 136.49 54.6098C136.909 54.1898 137.328 53.4398 137.746 52.3598C138.104 51.5198 138.283 51.0098 138.283 50.8298C137.379 49.0898 136.236 47.2298 134.852 45.2498C133.467 42.8498 132.354 41.2598 131.513 40.4798C131.392 40.1798 131.121 39.6998 130.7 39.0398C129.737 37.3599 129.285 36.5799 129.345 36.6999L127.81 33.9999C127.389 33.3999 126.877 32.4999 126.275 31.2999C125.914 30.6999 125.522 29.9499 125.1 29.0499C124.559 28.1499 124.258 27.6099 124.197 27.4299C123.716 26.8899 122.903 25.4499 121.759 23.1099C120.674 20.7099 120.131 19.2699 120.13 18.7899C120.13 18.5499 120.369 18.2499 120.849 17.8899C121.328 17.4699 121.867 17.0499 122.466 16.6299C124.384 15.7299 125.643 15.1899 126.243 15.0099C127.022 14.6499 127.682 14.3499 128.221 14.1099C128.821 13.8699 129.3 13.6599 129.66 13.4799C131.039 12.8199 132.957 12.0099 135.415 11.0499C135.895 10.8099 137.034 10.3299 138.833 9.6099C139.492 9.42991 140.092 9.33991 140.632 9.33991C140.992 9.33991 141.292 9.45991 141.533 9.6999C141.773 9.81991 142.134 10.2999 142.615 11.1399L145.779 17.9799C147.586 21.7599 148.851 24.3099 149.574 25.6299C149.694 25.8099 149.815 26.0499 149.935 26.3499C150.056 26.5899 150.176 26.7699 150.296 26.8899C150.657 27.3699 150.988 27.6099 151.288 27.6099C151.468 27.6099 151.617 27.5199 151.737 27.3399C151.917 27.1599 152.036 27.0099 152.096 26.8899L158.185 10.7799C158.423 9.9999 158.932 9.39991 159.711 8.97991C160.37 8.55991 161.18 8.40991 162.14 8.52991C166.043 9.78991 168.925 10.8099 170.786 11.5899C174.449 13.0899 177.152 14.4099 178.894 15.5499C179.495 15.8499 179.885 16.2399 180.066 16.7199C180.307 17.1399 180.338 17.5599 180.159 17.9799C180.1 18.5199 179.951 18.9699 179.711 19.3299L179.174 20.4099L164.834 51.6398L164.118 53.4398L155.331 70.2698C154.912 70.9898 154.523 71.4698 154.163 71.7098C153.864 72.0098 153.504 72.1598 153.084 72.1598Z" fill="black"/>
</svg>
