<svg width="2000" height="2000" viewBox="0 0 2000 2000" fill="none" xmlns="http://www.w3.org/2000/svg">
<rect width="2000" height="2000" fill="white"/>
<path d="M352.661 985.142H201.964V1030.16H352.661V985.142Z" fill="#EBEBEB"/>
<path d="M1410.33 623.128H1259.63V668.144H1410.33V623.128Z" fill="#EBEBEB"/>
<path d="M268.612 1086.92C243.496 1087.32 180.191 1088.33 155.932 1088.57H117.915H115.987V1086.72V1041.7V1039.69H118.13L193.478 1039.97C212.208 1039.97 250.054 1040.5 268.827 1040.74H269.855V1041.7L268.869 1086.72L268.612 1086.92ZM268.612 1086.92L267.584 1041.9L268.612 1042.87C249.797 1043.11 212.037 1043.47 193.264 1043.63L117.915 1043.92L120.058 1041.9V1086.92L118.087 1085.07L155.418 1085.27C179.291 1085.51 244.053 1086.52 268.784 1086.92H268.612Z" fill="#EBEBEB"/>
<path d="M985.152 1385.61C960.036 1386.02 896.731 1387.02 872.472 1387.26H834.455H832.526V1385.45V1340.44V1338.43H834.669L910.018 1338.71C928.791 1338.71 966.594 1339.23 985.366 1339.47H986.395V1340.44L985.366 1385.45L985.152 1385.61ZM985.152 1385.61L984.123 1340.6L985.152 1341.52C966.379 1341.8 928.619 1342.17 909.804 1342.33L834.455 1342.61L836.598 1340.6V1385.61L834.627 1383.76H871.958C895.874 1384.04 960.636 1385.05 985.324 1385.45L985.152 1385.61Z" fill="#EBEBEB"/>
<path d="M901.103 1442.38C875.986 1442.78 812.682 1443.78 788.423 1444.02H750.405H748.477V1442.21L748.262 1397.2V1395.51H750.405L825.754 1395.79C844.527 1395.79 882.33 1396.31 901.103 1396.56H902.131V1397.52L901.103 1442.54V1442.38ZM901.103 1442.38L900.074 1397.36L901.103 1398.29L863.428 1398.73C839.512 1399.05 775.136 1399.29 750.405 1399.37L752.548 1397.36V1442.38L750.577 1440.52H787.908C811.782 1440.81 876.586 1441.81 901.274 1442.21L901.103 1442.38Z" fill="#EBEBEB"/>
<path d="M817.396 1340.6H666.699V1385.61H817.396V1340.6Z" fill="#EBEBEB"/>
<path d="M1890.96 1041.9H1740.27V1086.92H1890.96V1041.9Z" fill="#EBEBEB"/>
<path d="M1806.91 204.474H1656.22V249.489H1806.91V204.474Z" fill="#EBEBEB"/>
<path d="M1890.96 306.251C1865.85 306.653 1802.54 307.659 1778.28 307.94H1740.27H1738.34V306.09L1738.12 261.075V259.063H1740.27L1815.61 259.345C1834.39 259.345 1872.19 259.868 1890.96 260.149H1891.99V261.075L1890.96 306.09V306.251ZM1890.96 306.251L1889.93 261.075L1890.96 262.04C1872.15 262.281 1834.43 262.684 1815.61 262.804L1740.27 263.086L1742.41 261.075V306.09L1740.44 304.28H1777.77C1801.68 304.521 1866.45 305.567 1891.13 305.929L1890.96 306.251Z" fill="#EBEBEB"/>
<path d="M352.661 249.489C327.545 249.891 264.24 250.897 239.982 251.179H201.964H200.036V249.328V204.313V202.302H202.179L277.527 202.583C296.3 202.583 334.103 203.106 352.876 203.388H353.904V204.313L352.876 249.328L352.661 249.489ZM352.661 249.489L351.633 204.474L352.661 205.439C333.846 205.681 296.086 206.083 277.313 206.204L201.964 206.485L204.107 204.474V249.489L202.136 247.679H239.467C263.34 247.92 328.102 248.966 352.833 249.328L352.661 249.489Z" fill="#EBEBEB"/>
<path d="M136.259 1601.28C692.458 1598.78 1316.42 1598.78 1872.62 1601.28C1316.42 1603.73 692.458 1603.73 136.259 1601.28Z" fill="#263238"/>
<path d="M1004.44 1762.87C1204.39 1762.87 1366.48 1735.51 1366.48 1701.77C1366.48 1668.02 1204.39 1640.66 1004.44 1640.66C804.489 1640.66 642.397 1668.02 642.397 1701.77C642.397 1735.51 804.489 1762.87 1004.44 1762.87Z" fill="#455A64"/>
<path opacity="0.1" d="M1366.48 1701.73C1366.48 1709.37 1358.21 1716.65 1343.04 1723.41C1078.63 1679.16 918.933 1710.66 808.524 1753.14C708.574 1742.24 642.397 1723.29 642.397 1701.73C642.397 1668.02 804.495 1640.66 1004.44 1640.66C1204.38 1640.66 1366.48 1668.02 1366.48 1701.73Z" fill="black"/>
<path d="M629.625 1701.77C632.24 1677.31 690.83 1665.56 712.346 1660.01C872.043 1627.83 1038.08 1629.2 1199.97 1644.84C1439.6 1670.43 1440.29 1732.98 1199.97 1759.78C1038 1775.26 871.958 1775.46 712.217 1743.68C690.101 1737.97 632.24 1726.31 629.497 1701.93L629.625 1701.77ZM630.054 1701.77C632.625 1725.54 691.43 1737.41 712.603 1742.44C776.379 1755.39 841.613 1760.54 906.675 1763.4C1004.38 1767.89 1102.31 1765.42 1199.63 1756.03C1436.17 1731.13 1436.99 1672.44 1199.63 1646.33C1069.74 1634.2 938.885 1634.37 809.039 1646.86C776.638 1649.89 744.442 1654.61 712.603 1661.02C690.83 1666.16 632.754 1677.91 630.054 1701.73V1701.77Z" fill="#455A64"/>
<path d="M1390.18 1701.77C1387.65 1728.52 1329.92 1741.63 1306.65 1748.19C1141.89 1784.8 969.165 1783.19 801.709 1765.45C556.72 1736.64 556.034 1666.93 801.709 1636.92C936.35 1621.52 1072.5 1621.74 1207.08 1637.56C1240.69 1641.52 1274 1647.44 1306.82 1655.3C1330.65 1661.98 1387.65 1674.93 1390.35 1701.77H1390.18ZM1389.75 1701.77C1387.1 1675.5 1329.45 1662.38 1306.35 1656.35C1240.6 1641.5 1172.97 1635.59 1105.59 1632.21C1004.34 1627.03 902.804 1629.83 802.052 1640.58C560.063 1668.74 559.291 1734.63 802.052 1763.84C936.532 1777.82 1072.26 1777.65 1206.7 1763.36C1240.28 1759.91 1273.6 1754.53 1306.48 1747.26C1330.05 1741.15 1387.18 1728.03 1389.88 1701.89L1389.75 1701.77Z" fill="#455A64"/>
<path d="M1390.18 1701.77C1388.08 1621.99 1388.04 1534.22 1390.18 1454.48C1392.28 1534.22 1392.28 1621.99 1390.18 1701.77Z" fill="#455A64"/>
<path d="M1114.5 1633.94C1112.4 1554.21 1112.36 1466.43 1114.5 1386.66C1116.65 1466.43 1116.6 1554.21 1114.5 1633.94Z" fill="#455A64"/>
<path d="M618.696 1701.77C616.596 1570.66 616.596 1423.55 618.696 1292.44C620.796 1423.55 620.796 1570.66 618.696 1701.77Z" fill="#455A64"/>
<path d="M1354.91 1675.26C1352.81 1576.7 1352.76 1466.07 1354.91 1367.47C1357.01 1466.07 1356.97 1576.66 1354.91 1675.26Z" fill="#455A64"/>
<path d="M814.696 1616.76C812.553 1557.03 812.596 1494.27 814.696 1434.45C816.839 1494.27 816.882 1557.03 814.696 1616.76Z" fill="#455A64"/>
<path d="M1218.74 1645.49C1216.64 1572.31 1216.64 1491.82 1218.74 1418.64C1220.88 1491.82 1220.84 1572.31 1218.74 1645.49Z" fill="#455A64"/>
<path d="M693.101 1667.17C691.001 1568.57 690.958 1457.98 693.101 1359.38C695.201 1457.94 695.159 1568.57 693.101 1667.17Z" fill="#455A64"/>
<path d="M1390.18 1338.06C1392.37 1368.64 1392.37 1399.33 1390.18 1429.9C1387.98 1399.33 1387.98 1368.64 1390.18 1338.06Z" fill="#455A64"/>
<path d="M749.248 1524.96C751.434 1555.54 751.434 1586.23 749.248 1616.8C747.041 1586.23 747.041 1555.54 749.248 1524.96Z" fill="#455A64"/>
<path d="M1305.02 1473.87C1307.2 1504.47 1307.2 1535.16 1305.02 1565.76C1302.81 1535.16 1302.81 1504.47 1305.02 1473.87Z" fill="#455A64"/>
<path d="M879.715 1536.31C881.923 1566.89 881.923 1597.57 879.715 1628.15C877.529 1597.57 877.529 1566.89 879.715 1536.31Z" fill="#455A64"/>
<path d="M1179.09 1529.55C1181.3 1560.14 1181.3 1590.84 1179.09 1621.43C1176.91 1590.84 1176.91 1560.14 1179.09 1529.55Z" fill="#455A64"/>
<path d="M1153.08 1746.98C1163.36 1745.78 1242.31 1736.08 1201.08 1723.29C1178.62 1716.41 1144.33 1714.52 1120.68 1712.02C1147.89 1713.43 1175.41 1713.96 1201.72 1721.4C1207.21 1722.97 1220.41 1728.08 1212.83 1734.59C1207.03 1738.26 1200.47 1740.71 1193.58 1741.79C1180.23 1744.45 1166.7 1746.18 1153.08 1746.98Z" fill="white"/>
<path d="M1078.16 1750.2C1097.15 1748.83 1116 1748.31 1135.03 1748.43C1116.21 1751.01 1097.13 1751.6 1078.16 1750.2Z" fill="white"/>
<path d="M974.865 1743.36C987.661 1744.03 1000.39 1745.52 1012.97 1747.83C1000.09 1748.26 987.23 1746.75 974.865 1743.36Z" fill="white"/>
<path d="M1078.16 1711.06C1054.76 1711.86 1031.4 1712.75 1008.12 1714.84C996.467 1715.81 984.852 1717.09 973.365 1718.86C963.55 1720.75 952.878 1721.88 944.391 1727.19C943.78 1727.57 943.263 1728.06 942.878 1728.65C942.493 1729.23 942.249 1729.89 942.163 1730.57C942.21 1729.87 942.419 1729.19 942.774 1728.57C943.129 1727.95 943.622 1727.41 944.22 1726.99C952.449 1721.08 963.207 1719.51 973.065 1717.33C984.594 1715.16 996.252 1713.88 1007.91 1712.79C1031.26 1710.84 1054.73 1710.23 1078.16 1710.98V1711.06Z" fill="white"/>
<path d="M1132.12 1740.18C1138.63 1739.26 1196.41 1733.35 1165.94 1726.63C1147.59 1722.36 1127.58 1721.76 1108.76 1719.75C1130.19 1720.63 1152.91 1719.75 1173.52 1726.95C1190.67 1737.37 1137.61 1740.14 1132.12 1740.18Z" fill="white"/>
<path d="M1078.16 1742.07C1091.74 1740.34 1105.47 1739.99 1119.13 1741.03C1105.55 1742.74 1091.82 1743.09 1078.16 1742.07Z" fill="white"/>
<path d="M1003.8 1738.09C1013.03 1737.56 1022.29 1738.43 1031.23 1740.67C1022 1741.18 1012.74 1740.32 1003.8 1738.09Z" fill="white"/>
<path d="M1078.16 1719.18C1061.53 1720.67 1044.81 1720.39 1028.23 1722C1015.11 1723.45 994.238 1723.45 982.195 1728.56C981.711 1728.73 981.279 1729.01 980.935 1729.38C980.592 1729.74 980.348 1730.18 980.223 1730.65C980.31 1730.15 980.517 1729.68 980.829 1729.27C981.141 1728.85 981.55 1728.52 982.023 1728.28C996.081 1721.48 1012.63 1721.88 1028.06 1719.99C1044.69 1718.62 1061.49 1719.06 1078.16 1719.18Z" fill="white"/>
<path d="M1282.09 1033.46C1282.09 1033.46 1330.09 1111.86 1362.45 1155.27C1394.81 1198.67 1430.34 1293.29 1437.2 1302.46C1444.06 1311.63 1456.06 1767.02 1456.06 1767.02C1456.06 1767.02 1377.45 1776.19 1360.99 1777.03C1344.54 1777.88 1266.14 1796.91 1266.14 1796.91L1424.73 1784.84L1361.47 1796.91C1361.47 1796.91 1466.99 1792.6 1472.05 1792.2C1477.1 1791.8 1514.35 1793.97 1516.15 1792.72C1517.95 1791.48 1523.52 1783.83 1521.89 1780.65C1520.26 1777.48 1490.52 1765.77 1490.52 1765.77C1490.52 1765.77 1500.38 1320.81 1499.73 1313C1499.09 1305.2 1508.31 1293.53 1502.99 1285.77C1497.68 1278 1480.15 1270.72 1477.53 1265.17C1474.92 1259.62 1450.1 1111.06 1447.53 1044.32C1446.54 1014.83 1298.08 992.101 1282.09 1033.46Z" fill="#FFC727"/>
<path opacity="0.7" d="M1282.09 1033.46C1282.09 1033.46 1330.09 1111.86 1362.45 1155.27C1394.81 1198.67 1430.34 1293.29 1437.2 1302.46C1444.06 1311.63 1456.06 1767.02 1456.06 1767.02C1456.06 1767.02 1377.45 1776.19 1360.99 1777.03C1344.54 1777.88 1266.14 1796.91 1266.14 1796.91L1424.73 1784.84L1361.47 1796.91C1361.47 1796.91 1466.99 1792.6 1472.05 1792.2C1477.1 1791.8 1514.35 1793.97 1516.15 1792.72C1517.95 1791.48 1523.52 1783.83 1521.89 1780.65C1520.26 1777.48 1490.52 1765.77 1490.52 1765.77C1490.52 1765.77 1500.38 1320.81 1499.73 1313C1499.09 1305.2 1508.31 1293.53 1502.99 1285.77C1497.68 1278 1480.15 1270.72 1477.53 1265.17C1474.92 1259.62 1450.1 1111.06 1447.53 1044.32C1446.54 1014.83 1298.08 992.101 1282.09 1033.46Z" fill="white"/>
<path d="M1457.94 1144.36L1301.55 1064.63C1289.98 1046.45 1282.09 1033.54 1282.09 1033.54C1298.08 992.061 1446.5 1014.83 1447.7 1044.36C1448.69 1069.94 1452.93 1107.48 1457.94 1144.36Z" fill="#FFC727"/>
<path d="M1478.09 1390.8C1478.09 1390.8 1486.02 1391.65 1498.62 1392.69C1498.62 1392.05 1498.62 1391.41 1498.62 1390.8H1478.09ZM1416.33 1257.33C1417.01 1258.81 1417.7 1260.3 1418.34 1261.79C1430.86 1261.24 1443.32 1259.74 1455.59 1257.33H1416.33ZM1452.93 1104.7C1452.93 1104.7 1452.93 1104.26 1452.93 1104.06H1430.64C1430.64 1104.06 1434.11 1104.46 1440.16 1104.98L1453.02 1106.11C1453.06 1105.62 1452.97 1105.18 1452.93 1104.7ZM1376.47 1176.79C1376.85 1177.51 1377.28 1178.24 1377.71 1178.96C1382 1178.36 1386.28 1177.63 1390.31 1176.79H1376.47ZM1462.19 1174.62H1450.79C1450.79 1174.62 1455.07 1175.1 1462.32 1175.74L1462.19 1174.62ZM1467.07 1206.8H1422.93C1422.93 1206.8 1441.79 1208.85 1467.72 1210.42C1467.33 1209.09 1467.33 1207.88 1467.33 1206.68L1467.07 1206.8ZM1361.64 1154.5L1362.37 1155.47L1363.78 1157.4L1365.19 1159.37C1381.03 1159.09 1396.82 1157.46 1412.34 1154.5H1361.64ZM1463.9 1442.98C1463.9 1442.98 1477.19 1444.1 1497.5 1445.31C1497.5 1444.51 1497.5 1443.78 1497.5 1442.98H1463.9ZM1469.95 1589.17C1478.02 1590.92 1486.19 1592.27 1494.42 1593.19C1494.42 1591.94 1494.42 1590.58 1494.42 1589.17H1469.95ZM1381.1 1136.2C1381.1 1136.2 1408.74 1147.86 1422.71 1136.2H1381.1ZM1455.67 1458.39C1455.67 1458.39 1483.27 1470.05 1497.25 1458.39H1455.67ZM1440.5 1332.55C1440.5 1334.24 1440.76 1335.97 1440.84 1337.74C1451.45 1338.07 1462 1336.3 1471.83 1332.55H1440.5ZM1441.79 1354.11C1441.79 1354.48 1441.79 1354.8 1441.79 1355.16L1449.89 1353.95L1441.79 1354.11ZM1454.64 1715.64C1454.64 1716.29 1454.64 1716.97 1454.64 1717.62C1459.74 1717.05 1464.59 1716.37 1469.17 1715.64H1454.64ZM1471.15 1539.12C1471.15 1539.12 1480.49 1539.89 1495.58 1540.85C1495.58 1540.29 1495.58 1539.69 1495.58 1539.12H1471.15ZM1453.49 1674.41C1453.49 1675.3 1453.49 1676.14 1453.49 1676.99C1460.69 1676.26 1467.5 1675.42 1473.72 1674.41H1453.49ZM1452.59 1645.12V1649.15C1465.42 1648.48 1478.19 1647.14 1490.86 1645.12H1452.59Z" fill="#FFC727"/>
<path d="M1380.11 1033.46C1380.11 1033.46 1453.27 1118.86 1485.63 1162.19C1517.99 1205.51 1589.78 1293.21 1596.68 1302.38C1603.58 1311.55 1707.35 1767.1 1707.35 1767.1C1707.35 1767.1 1628.74 1776.27 1612.29 1777.11C1595.83 1777.96 1517.39 1796.99 1517.39 1796.99L1675.98 1784.92L1612.76 1796.99C1612.76 1796.99 1718.28 1792.68 1723.34 1792.28C1728.39 1791.88 1765.64 1794.05 1767.44 1792.8C1769.24 1791.56 1774.77 1783.91 1773.14 1780.73C1771.51 1777.56 1741.81 1765.85 1741.81 1765.85C1741.81 1765.85 1660.2 1320.89 1659.39 1313.08C1658.57 1305.28 1667.96 1293.61 1662.65 1285.85C1657.33 1278.08 1639.76 1270.8 1637.14 1265.25C1634.53 1259.7 1548.34 1111.14 1545.72 1044.4C1544.48 1014.83 1396.14 992.101 1380.11 1033.46Z" fill="#FFC727"/>
<path opacity="0.7" d="M1380.11 1033.46C1380.11 1033.46 1453.27 1118.86 1485.63 1162.19C1517.99 1205.51 1589.78 1293.21 1596.68 1302.38C1603.58 1311.55 1707.35 1767.1 1707.35 1767.1C1707.35 1767.1 1628.74 1776.27 1612.29 1777.11C1595.83 1777.96 1517.39 1796.99 1517.39 1796.99L1675.98 1784.92L1612.76 1796.99C1612.76 1796.99 1718.28 1792.68 1723.34 1792.28C1728.39 1791.88 1765.64 1794.05 1767.44 1792.8C1769.24 1791.56 1774.77 1783.91 1773.14 1780.73C1771.51 1777.56 1741.81 1765.85 1741.81 1765.85C1741.81 1765.85 1660.2 1320.89 1659.39 1313.08C1658.57 1305.28 1667.96 1293.61 1662.65 1285.85C1657.33 1278.08 1639.76 1270.8 1637.14 1265.25C1634.53 1259.7 1548.34 1111.14 1545.72 1044.4C1544.48 1014.83 1396.14 992.101 1380.11 1033.46Z" fill="white"/>
<path d="M1673.06 1390.8H1658.96C1658.96 1390.8 1664.32 1391.37 1673.27 1392.13C1673.4 1391.69 1673.32 1391.25 1673.06 1390.8ZM1560.21 1257.33C1561.3 1258.61 1562.32 1259.95 1563.3 1261.35C1572.88 1260.64 1582.41 1259.29 1591.8 1257.33H1560.21ZM1558.37 1099.95C1558.34 1099.86 1558.34 1099.76 1558.37 1099.67L1557.98 1098.63H1535.91C1535.91 1098.63 1542.29 1099.31 1552.79 1100.23L1558.79 1100.72C1558.68 1100.47 1558.59 1100.22 1558.54 1099.95H1558.37ZM1491.03 1169.75C1491.89 1170.92 1492.83 1172.16 1493.82 1173.37L1494.33 1174.05C1505.96 1173.43 1517.52 1171.99 1528.92 1169.75H1491.03ZM1613.96 1222.77H1595.95C1595.95 1222.77 1603.2 1223.57 1614.9 1224.5C1614.73 1223.94 1614.43 1223.37 1614.13 1222.77H1613.96ZM1479.42 1154.38C1480.7 1156.03 1481.95 1157.64 1483.1 1159.21C1498.5 1158.88 1513.83 1157.27 1528.92 1154.38H1479.42ZM1682.96 1445.19C1682.4 1444.39 1681.76 1443.66 1681.12 1442.86H1644.86C1644.86 1442.86 1660.07 1444.15 1683.05 1445.47C1683.05 1445.47 1683.26 1445.27 1683.13 1445.19H1682.96ZM1718.79 1640.66H1697.96C1697.96 1640.66 1705.98 1641.3 1719.09 1642.19C1719.18 1641.71 1719.09 1641.18 1718.96 1640.66H1718.79ZM1735.25 1730.05C1735.25 1729.32 1734.95 1728.56 1734.82 1727.79H1706.19C1715.9 1729.86 1725.73 1731.34 1735.64 1732.22L1735.25 1730.05ZM1722.69 1661.66H1689.3C1700.59 1664.03 1712.05 1665.62 1723.59 1666.41C1723.42 1665.04 1723.12 1663.35 1722.86 1661.74L1722.69 1661.66ZM1567.58 1124.09C1567.24 1123.29 1566.94 1122.52 1566.64 1121.72H1510.66C1526.1 1125.18 1541.93 1126.88 1557.81 1126.79L1561.58 1126.58C1563.81 1126.58 1565.87 1126.26 1568.18 1125.98L1567.58 1124.09ZM1636.72 1458.39C1636.72 1458.39 1664.36 1470.05 1678.33 1458.39H1636.72ZM1420.18 1081.01L1424.47 1086.07C1433.28 1086.52 1442.11 1085.98 1450.79 1084.47C1452.94 1084.09 1455.06 1083.58 1457.13 1082.94C1458.93 1082.42 1460.69 1081.79 1462.4 1081.05L1420.18 1081.01ZM1605.3 1332.55C1605.6 1333.72 1605.9 1334.89 1606.24 1336.09L1606.5 1337.14C1622.14 1338.39 1640.44 1338.1 1652.87 1332.55H1605.3ZM1610.74 1354.11C1610.74 1354.92 1611.17 1355.8 1611.38 1356.65C1618.37 1355.97 1624.97 1355.12 1631.06 1354.11H1610.74ZM1700.32 1539.16H1652.23L1654.8 1539.37C1661.15 1539.85 1678.33 1541.18 1700.79 1542.3C1700.71 1541.22 1700.49 1540.33 1700.32 1539.12V1539.16ZM1658.53 1555.26L1658.92 1556.86C1662.77 1556.38 1666.42 1555.86 1669.97 1555.26H1658.53ZM1694.49 1710.42C1694.75 1711.6 1695.01 1712.72 1695.26 1713.79C1705.81 1712.99 1715.62 1711.9 1724.41 1710.42H1694.49ZM1665.26 1583.86C1665.56 1585.06 1665.82 1586.27 1666.12 1587.48C1677.9 1586.63 1688.88 1585.47 1698.61 1583.86H1665.26Z" fill="#FFC727"/>
<path d="M1141.12 1275.99C1141.12 1307.21 1140.86 1336.71 1140.35 1364.49C1138.38 1475.28 1132.85 1559.92 1127.15 1620.79C1121.15 1684.67 1114.89 1722.4 1112.32 1736.64C1095.39 1737.53 1078.03 1738.21 1060.03 1738.66C1062.99 1725.34 1071.73 1683.54 1079.57 1618.53C1089.02 1537.83 1093.73 1456.7 1093.67 1375.52C1093.67 1358.06 1093.47 1340.12 1093.07 1321.69C1092.79 1307.05 1092.32 1292.11 1091.66 1276.88C1091.66 1276.51 1091.66 1276.19 1091.66 1275.83L1141.12 1275.99Z" fill="#FFC727"/>
<path opacity="0.7" d="M1141.12 1275.99C1141.12 1307.21 1140.86 1336.71 1140.35 1364.49C1138.38 1475.28 1132.85 1559.92 1127.15 1620.79C1121.15 1684.67 1114.89 1722.4 1112.32 1736.64C1095.39 1737.53 1078.03 1738.21 1060.03 1738.66C1062.99 1725.34 1071.73 1683.54 1079.57 1618.53C1089.02 1537.83 1093.73 1456.7 1093.67 1375.52C1093.67 1358.06 1093.47 1340.12 1093.07 1321.69C1092.79 1307.05 1092.32 1292.11 1091.66 1276.88C1091.66 1276.51 1091.66 1276.19 1091.66 1275.83L1141.12 1275.99Z" fill="white"/>
<path d="M1065.99 1653.45C1073.57 1649.51 1079.29 1643.03 1082.02 1635.31C1082.84 1632.68 1083.4 1629.99 1083.69 1627.26C1083.69 1626.86 1083.09 1626.82 1083 1627.26C1082.31 1629.78 1081.33 1632.22 1080.09 1634.54C1078.94 1636.86 1077.59 1639.08 1076.06 1641.18C1073.09 1645.38 1069.46 1649.14 1065.3 1652.33C1064.7 1652.97 1065.34 1653.81 1065.99 1653.45Z" fill="#FFC727"/>
<path d="M1083.13 1610.93C1087.07 1609.21 1090.36 1606.4 1092.56 1602.89C1093.64 1601.18 1094.51 1599.35 1095.13 1597.46C1095.85 1595.63 1096.17 1593.69 1096.07 1591.74C1096.07 1591.42 1095.56 1591.46 1095.43 1591.74C1094.62 1593.39 1094.1 1595.16 1093.25 1596.85C1092.38 1598.51 1091.36 1600.1 1090.2 1601.6C1089.09 1603.05 1087.93 1604.46 1086.69 1605.62C1085.36 1607.05 1083.93 1608.4 1082.4 1609.64C1082.22 1609.74 1082.08 1609.89 1082.02 1610.07C1081.96 1610.26 1081.98 1610.46 1082.08 1610.63C1082.18 1610.8 1082.34 1610.93 1082.54 1610.98C1082.74 1611.04 1082.95 1611.02 1083.13 1610.93Z" fill="white"/>
<path d="M1122.39 1611.17C1124.54 1615.02 1127.91 1618.14 1132.03 1620.1C1132.27 1620.23 1132.55 1620.27 1132.82 1620.21C1133.09 1620.15 1133.32 1619.99 1133.47 1619.77C1133.61 1619.56 1133.67 1619.3 1133.62 1619.04C1133.57 1618.79 1133.41 1618.56 1133.19 1618.41C1130.16 1615.67 1127.3 1612.77 1124.62 1609.72C1121.99 1606.58 1120.03 1602.98 1118.83 1599.14C1118.83 1598.82 1118.1 1598.94 1118.19 1599.14C1118.75 1603.37 1120.17 1607.46 1122.39 1611.17Z" fill="#FFC727"/>
<path d="M1111.59 1578.39C1111.96 1580.16 1112.46 1581.91 1113.09 1583.62C1113.75 1586.79 1115.7 1589.59 1118.53 1591.42C1119.95 1592.1 1120.85 1590.13 1119.56 1589.37C1118.41 1588.58 1117.5 1587.51 1116.95 1586.27C1116.2 1584.96 1115.53 1583.62 1114.93 1582.25C1114.33 1580.76 1113.69 1579.27 1113.18 1577.74C1112.66 1576.21 1112.19 1574.57 1111.59 1573.04C1111.59 1572.95 1111.55 1572.87 1111.49 1572.81C1111.43 1572.75 1111.34 1572.71 1111.25 1572.71C1111.16 1572.71 1111.07 1572.75 1111 1572.81C1110.94 1572.87 1110.9 1572.95 1110.9 1573.04C1110.92 1574.84 1111.15 1576.63 1111.59 1578.39Z" fill="white"/>
<path d="M1141.25 1573.04C1142.41 1573.4 1142.84 1571.75 1141.89 1571.23C1133.03 1566.82 1126.38 1559.32 1123.38 1550.35C1123.38 1549.99 1122.69 1550.11 1122.73 1550.35C1123.18 1555.4 1125.17 1560.22 1128.45 1564.24C1131.73 1568.26 1136.17 1571.31 1141.25 1573.04Z" fill="#FFC727"/>
<path d="M1128.09 1547.97C1128.91 1548.78 1130.36 1547.53 1129.63 1546.69C1125.24 1542 1122.95 1535.9 1123.25 1529.67C1123.25 1529.58 1123.21 1529.5 1123.15 1529.44C1123.08 1529.38 1123 1529.35 1122.91 1529.35C1122.81 1529.35 1122.73 1529.38 1122.66 1529.44C1122.6 1529.5 1122.56 1529.58 1122.56 1529.67C1121.95 1532.92 1122.13 1536.25 1123.08 1539.42C1124.04 1542.59 1125.75 1545.52 1128.09 1547.97Z" fill="white"/>
<path d="M1080.47 1563.42C1084.82 1561.91 1088.64 1559.31 1091.53 1555.9C1094.47 1552.49 1096.65 1548.56 1097.96 1544.35C1097.96 1543.95 1097.49 1543.83 1097.32 1544.35C1095.67 1548.22 1093.2 1551.74 1090.07 1554.69C1088.6 1556.11 1087.06 1557.45 1085.44 1558.72C1083.69 1560.04 1081.76 1561.09 1079.92 1562.3C1079.27 1562.5 1079.57 1563.66 1080.47 1563.42Z" fill="#FFC727"/>
<path d="M1084.33 1573.04C1086.34 1571.52 1088.17 1569.79 1089.77 1567.89C1091.33 1565.96 1092.76 1563.94 1094.06 1561.85C1094.08 1561.79 1094.07 1561.72 1094.05 1561.65C1094.02 1561.59 1093.97 1561.54 1093.91 1561.5C1093.85 1561.46 1093.77 1561.45 1093.7 1561.45C1093.63 1561.46 1093.56 1561.49 1093.5 1561.53C1090.5 1565.38 1087.09 1568.93 1083.3 1572.11C1083.17 1572.24 1083.1 1572.41 1083.1 1572.59C1083.11 1572.76 1083.19 1572.93 1083.32 1573.06C1083.46 1573.18 1083.64 1573.25 1083.83 1573.24C1084.02 1573.24 1084.2 1573.16 1084.33 1573.04Z" fill="#FFC727"/>
<path d="M1077.56 1516.64C1082.24 1513.87 1086.15 1510.09 1088.96 1505.61C1091.75 1500.63 1093.88 1495.35 1095.3 1489.88C1095.3 1489.52 1094.79 1489.36 1094.66 1489.88C1092.71 1494.92 1090.23 1499.76 1087.25 1504.33C1084.31 1508.56 1080.78 1512.41 1076.74 1515.75C1076.71 1515.86 1076.7 1515.98 1076.72 1516.1C1076.75 1516.21 1076.8 1516.32 1076.89 1516.41C1076.97 1516.5 1077.07 1516.57 1077.19 1516.61C1077.31 1516.64 1077.44 1516.66 1077.56 1516.64Z" fill="#FFC727"/>
<path d="M1080.22 1529.03C1083.47 1526.7 1086.19 1523.78 1088.23 1520.46C1090.21 1517.11 1091.66 1513.5 1092.52 1509.76C1092.52 1509.35 1092 1509.27 1091.87 1509.76C1090.53 1513.25 1088.68 1516.55 1086.39 1519.57C1084.23 1522.56 1081.8 1525.37 1079.14 1527.98C1078.42 1528.5 1079.44 1529.59 1080.22 1529.03Z" fill="#FFC727"/>
<path d="M1114.59 1522.19C1115.02 1522.71 1116.09 1522.19 1115.75 1521.62C1111.37 1514.57 1109.22 1506.49 1109.53 1498.33C1109.53 1497.93 1108.93 1497.81 1108.89 1498.33C1107.99 1506.46 1108.63 1515.59 1114.59 1522.19Z" fill="white"/>
<path d="M1137.31 1490.41C1137.48 1490.51 1137.69 1490.55 1137.9 1490.54C1138.1 1490.52 1138.29 1490.43 1138.45 1490.3C1138.6 1490.17 1138.7 1489.99 1138.73 1489.8C1138.77 1489.61 1138.73 1489.41 1138.64 1489.24C1134.81 1484.25 1131.31 1479.05 1128.13 1473.67C1125.06 1468.17 1122.67 1462.35 1121.02 1456.33C1121.02 1455.97 1120.38 1456.13 1120.38 1456.33C1121.05 1469.34 1127.13 1481.57 1137.31 1490.41Z" fill="#FFC727"/>
<path d="M1126.51 1496.36C1127.19 1496.84 1128.35 1496.04 1127.66 1495.36C1125.84 1493.57 1124.26 1491.59 1122.95 1489.44C1121.66 1487.2 1120.93 1484.71 1120.8 1482.16C1120.8 1481.76 1120.12 1481.84 1120.12 1482.16C1119.95 1484.83 1120.44 1487.5 1121.54 1489.96C1122.65 1492.42 1124.35 1494.61 1126.51 1496.36Z" fill="white"/>
<path d="M1097.32 1465.95C1106.17 1456.76 1110.79 1444.65 1110.18 1432.28C1110.18 1431.96 1109.58 1431.92 1109.53 1432.28C1107.49 1444.01 1103.13 1455.28 1096.67 1465.51C1096.37 1465.91 1096.97 1466.27 1097.32 1465.95Z" fill="#FFC727"/>
<path d="M1107.3 1471.94C1108 1470.74 1108.56 1469.47 1108.98 1468.16C1109.36 1466.92 1109.63 1465.66 1109.79 1464.38C1109.79 1463.13 1110.05 1461.89 1110.05 1460.64C1110.05 1459.39 1110.05 1459.35 1110.05 1458.71C1109.98 1457.92 1109.98 1457.12 1110.05 1456.33C1110.05 1455.85 1109.28 1455.89 1109.4 1456.33C1109.49 1457.03 1109.49 1457.73 1109.4 1458.43L1109.15 1460.36C1108.93 1461.6 1108.72 1462.89 1108.42 1464.14C1108.12 1465.39 1107.78 1466.63 1107.43 1467.88C1107.09 1469.13 1106.79 1470.37 1106.4 1471.58C1106.02 1472.79 1107.3 1472.51 1107.3 1471.94Z" fill="white"/>
<path d="M1141.08 1426.53C1141.89 1426.89 1142.71 1425.8 1141.98 1425.28C1134.47 1418.82 1129.16 1410.42 1126.72 1401.14C1126.72 1400.82 1126.03 1400.94 1126.08 1401.14C1127.92 1411.04 1130.75 1422.02 1141.08 1426.53Z" fill="#FFC727"/>
<path d="M1148.45 1396.76C1148.61 1396.73 1148.77 1396.66 1148.89 1396.55C1149.01 1396.45 1149.09 1396.3 1149.12 1396.15C1149.16 1396 1149.14 1395.84 1149.07 1395.69C1149 1395.55 1148.89 1395.43 1148.75 1395.35C1144.18 1393.97 1139.85 1391.98 1135.89 1389.44C1131.86 1386.72 1128.65 1383.06 1126.59 1378.81C1126.59 1378.45 1125.82 1378.81 1125.99 1378.81C1129.08 1387.95 1137.91 1396.48 1148.45 1396.76Z" fill="#FFC727"/>
<path d="M1073.02 1417.27C1080.19 1412.9 1086.28 1407.13 1090.87 1400.36C1095.46 1393.58 1098.45 1385.96 1099.63 1378.01C1099.65 1377.96 1099.66 1377.91 1099.65 1377.86C1099.64 1377.81 1099.62 1377.76 1099.59 1377.71C1099.56 1377.67 1099.52 1377.64 1099.47 1377.61C1099.42 1377.59 1099.37 1377.58 1099.31 1377.58C1099.25 1377.58 1099.2 1377.59 1099.15 1377.61C1099.1 1377.64 1099.06 1377.67 1099.03 1377.71C1099 1377.76 1098.98 1377.81 1098.97 1377.86C1098.96 1377.91 1098.97 1377.96 1098.99 1378.01C1094.71 1393.16 1085.33 1406.61 1072.24 1416.35C1072.18 1416.46 1072.16 1416.58 1072.17 1416.71C1072.18 1416.83 1072.23 1416.95 1072.31 1417.04C1072.39 1417.14 1072.5 1417.22 1072.63 1417.26C1072.75 1417.3 1072.89 1417.3 1073.02 1417.27Z" fill="#FFC727"/>
<path d="M1083.56 1428.98C1088.42 1426.98 1092.57 1423.71 1095.52 1419.57C1098.66 1415.58 1100.87 1411.02 1101.99 1406.17C1101.96 1406.1 1101.91 1406.04 1101.85 1405.99C1101.78 1405.95 1101.71 1405.93 1101.62 1405.93C1101.54 1405.93 1101.47 1405.95 1101.4 1405.99C1101.34 1406.04 1101.29 1406.1 1101.26 1406.17C1099.52 1410.68 1097.01 1414.91 1093.85 1418.68C1092.32 1420.5 1090.63 1422.2 1088.79 1423.75C1086.9 1425.4 1084.89 1426.89 1083.05 1428.5C1082.7 1428.62 1083.13 1429.1 1083.56 1428.98Z" fill="white"/>
<path d="M1087.67 1447.16C1091.47 1443.42 1093.81 1438.59 1094.32 1433.44C1094.32 1433.04 1093.76 1432.96 1093.67 1433.44C1093.02 1435.82 1092.1 1438.13 1090.93 1440.32C1089.66 1442.49 1088.23 1444.58 1086.64 1446.56C1086.56 1446.69 1086.53 1446.84 1086.57 1446.99C1086.6 1447.14 1086.7 1447.26 1086.84 1447.34C1086.97 1447.42 1087.14 1447.45 1087.3 1447.41C1087.45 1447.38 1087.59 1447.29 1087.67 1447.16Z" fill="#FFC727"/>
<path d="M1115.88 1397C1116.22 1397.56 1117.25 1397 1116.99 1396.43C1115.71 1393.47 1114.66 1390.41 1113.86 1387.3C1113.08 1384.13 1112.8 1380.86 1113 1377.61C1113 1377.25 1112.36 1377.21 1112.32 1377.61C1111.2 1384.26 1112.45 1391.08 1115.88 1397Z" fill="#FFC727"/>
<path d="M1143.74 1355.88C1144.76 1356.17 1145.15 1354.8 1144.29 1354.32C1140.32 1352.33 1136.76 1349.69 1133.79 1346.51C1130.83 1343.18 1128.96 1339.11 1128.39 1334.81C1128.39 1334.72 1128.35 1334.64 1128.29 1334.58C1128.23 1334.52 1128.14 1334.48 1128.05 1334.48C1127.96 1334.48 1127.87 1334.52 1127.81 1334.58C1127.74 1334.64 1127.71 1334.72 1127.71 1334.81C1128.13 1343.66 1134.22 1353.59 1143.74 1355.88Z" fill="#FFC727"/>
<path d="M1083.22 1350.41C1091.42 1344.34 1097.83 1336.39 1101.82 1327.32C1101.85 1327.29 1101.87 1327.24 1101.88 1327.19C1101.89 1327.15 1101.9 1327.1 1101.88 1327.05C1101.87 1327.01 1101.85 1326.96 1101.82 1326.92C1101.79 1326.89 1101.75 1326.86 1101.7 1326.83C1101.66 1326.81 1101.61 1326.8 1101.56 1326.8C1101.5 1326.8 1101.45 1326.81 1101.41 1326.83C1101.36 1326.85 1101.32 1326.88 1101.29 1326.92C1101.25 1326.95 1101.23 1326.99 1101.22 1327.04C1096.23 1335.42 1089.87 1343.01 1082.36 1349.53C1081.8 1350.01 1082.62 1350.82 1083.22 1350.41Z" fill="#FFC727"/>
<path d="M1088.15 1358.34C1092.48 1353.8 1095.93 1348.59 1098.35 1342.93C1098.35 1342.86 1098.34 1342.8 1098.3 1342.74C1098.26 1342.68 1098.21 1342.63 1098.14 1342.61C1098.07 1342.58 1098 1342.57 1097.93 1342.59C1097.86 1342.6 1097.79 1342.64 1097.75 1342.69C1094.57 1347.88 1090.72 1352.63 1087.2 1357.57C1087.14 1357.69 1087.12 1357.83 1087.15 1357.96C1087.18 1358.09 1087.25 1358.21 1087.36 1358.3C1087.47 1358.39 1087.6 1358.44 1087.74 1358.45C1087.89 1358.45 1088.03 1358.42 1088.15 1358.34Z" fill="#FFC727"/>
<path d="M1151.41 1320.69C1152.05 1320.69 1152.56 1319.8 1151.79 1319.56C1147.59 1318.53 1143.65 1316.69 1140.24 1314.16C1136.82 1311.63 1134 1308.47 1131.95 1304.88C1131.95 1304.51 1131.13 1304.67 1131.31 1304.88C1134.56 1312.84 1142.02 1320.2 1151.41 1320.69Z" fill="#FFC727"/>
<path d="M1138.16 1304.51C1139.28 1305.88 1140.51 1307.16 1141.85 1308.33C1143.22 1309.51 1144.73 1310.54 1146.35 1311.39C1146.99 1311.75 1147.51 1310.75 1146.86 1310.39C1145.38 1309.53 1143.94 1308.59 1142.58 1307.57C1141.16 1306.57 1139.87 1305.42 1138.72 1304.15C1138.42 1303.87 1137.86 1304.19 1138.16 1304.51Z" fill="#FFC727"/>
<path d="M1085.87 1323.1C1091.15 1320.04 1095.08 1315.3 1096.93 1309.74C1096.96 1309.67 1096.96 1309.59 1096.92 1309.51C1096.88 1309.44 1096.82 1309.39 1096.74 1309.36C1096.7 1309.35 1096.66 1309.34 1096.62 1309.34C1096.57 1309.35 1096.53 1309.36 1096.49 1309.37C1096.42 1309.41 1096.36 1309.47 1096.33 1309.54C1094.26 1314.84 1090.41 1319.36 1085.36 1322.41C1084.8 1322.78 1085.27 1323.46 1085.87 1323.1Z" fill="#FFC727"/>
<path d="M1126.93 1672.12C1127.03 1672.2 1127.15 1672.27 1127.28 1672.31C1127.41 1672.35 1127.54 1672.37 1127.68 1672.36C1127.82 1672.35 1127.95 1672.32 1128.07 1672.27C1128.19 1672.21 1128.3 1672.13 1128.39 1672.04C1128.48 1671.94 1128.55 1671.83 1128.59 1671.71C1128.64 1671.59 1128.66 1671.46 1128.65 1671.34C1128.64 1671.21 1128.61 1671.09 1128.55 1670.97C1128.49 1670.86 1128.41 1670.75 1128.31 1670.67C1123.91 1666.39 1120.03 1661.66 1116.73 1656.59C1113.55 1651.37 1111.36 1645.66 1110.26 1639.73C1110.26 1639.37 1109.58 1639.41 1109.62 1639.73C1110.13 1651.88 1115.88 1665.04 1126.93 1672.12Z" fill="#FFC727"/>
<path d="M1109.1 1680.77C1109.22 1680.9 1109.39 1680.98 1109.58 1681C1109.76 1681.01 1109.95 1680.96 1110.09 1680.85C1110.23 1680.74 1110.32 1680.58 1110.34 1680.4C1110.35 1680.23 1110.29 1680.06 1110.18 1679.92C1105.85 1674.99 1103.36 1668.85 1103.1 1662.46C1103.1 1662.38 1103.07 1662.3 1103 1662.24C1102.94 1662.18 1102.85 1662.14 1102.76 1662.14C1102.67 1662.14 1102.58 1662.18 1102.52 1662.24C1102.45 1662.3 1102.42 1662.38 1102.42 1662.46C1102.06 1665.79 1102.47 1669.14 1103.62 1672.3C1104.77 1675.46 1106.65 1678.35 1109.1 1680.77Z" fill="white"/>
<path d="M1077.94 1689.18C1086.85 1679.5 1092.4 1667.5 1093.85 1654.78C1093.85 1654.42 1093.29 1654.3 1093.2 1654.78C1089.23 1666.57 1083.76 1677.88 1076.92 1688.45C1076.53 1688.85 1077.3 1689.74 1077.94 1689.18Z" fill="#FFC727"/>
<path d="M1080.77 1705.99C1082.9 1703.41 1084.61 1700.55 1085.83 1697.5C1086.96 1694.46 1087.67 1691.3 1087.93 1688.09C1087.95 1688.04 1087.96 1687.99 1087.95 1687.94C1087.94 1687.88 1087.92 1687.84 1087.89 1687.79C1087.86 1687.75 1087.82 1687.72 1087.77 1687.69C1087.72 1687.67 1087.66 1687.65 1087.61 1687.65C1087.55 1687.65 1087.5 1687.67 1087.45 1687.69C1087.4 1687.72 1087.36 1687.75 1087.33 1687.79C1087.3 1687.84 1087.28 1687.88 1087.27 1687.94C1087.26 1687.99 1087.27 1688.04 1087.29 1688.09C1086.61 1691.15 1085.61 1694.15 1084.29 1697.02C1083 1699.89 1081.47 1702.66 1079.7 1705.31C1079.61 1705.44 1079.57 1705.6 1079.6 1705.76C1079.63 1705.92 1079.73 1706.06 1079.87 1706.15C1080.02 1706.24 1080.19 1706.28 1080.36 1706.25C1080.53 1706.22 1080.68 1706.12 1080.77 1705.99Z" fill="white"/>
<path d="M1057.8 1693.2C1062.34 1690.85 1066.31 1687.65 1069.48 1683.79C1072.64 1679.94 1074.93 1675.51 1076.19 1670.79C1076.19 1670.72 1076.16 1670.64 1076.1 1670.59C1076.04 1670.54 1075.97 1670.51 1075.89 1670.51C1075.81 1670.51 1075.73 1670.54 1075.67 1670.59C1075.62 1670.64 1075.59 1670.72 1075.59 1670.79C1073.7 1675.16 1071.09 1679.23 1067.87 1682.86C1064.61 1686.35 1060.97 1689.51 1057.03 1692.31C1056.99 1692.42 1056.99 1692.54 1057.01 1692.65C1057.03 1692.76 1057.08 1692.86 1057.16 1692.95C1057.24 1693.04 1057.33 1693.11 1057.45 1693.15C1057.56 1693.19 1057.68 1693.21 1057.8 1693.2Z" fill="#FFC727"/>
<path d="M1060.8 1740.71C1064.95 1738.02 1068.31 1734.4 1070.57 1730.17C1073 1726.04 1074.66 1721.55 1075.46 1716.89C1075.46 1716.53 1074.94 1716.41 1074.82 1716.89C1073.35 1721.25 1071.31 1725.41 1068.73 1729.28C1066.2 1733.31 1062.9 1736.44 1060.16 1740.06C1060.13 1740.15 1060.13 1740.24 1060.16 1740.32C1060.18 1740.41 1060.23 1740.49 1060.29 1740.55C1060.35 1740.62 1060.43 1740.66 1060.52 1740.69C1060.61 1740.72 1060.71 1740.72 1060.8 1740.71Z" fill="white"/>
<path d="M1115.88 1731.94C1116.48 1732.26 1117.38 1731.54 1116.78 1730.97C1111.94 1726.7 1107.74 1721.83 1104.3 1716.49C1100.91 1711.05 1098.77 1705.01 1098 1698.75C1097.98 1698.69 1097.93 1698.63 1097.88 1698.6C1097.82 1698.56 1097.75 1698.54 1097.68 1698.54C1097.61 1698.54 1097.54 1698.56 1097.49 1698.6C1097.43 1698.63 1097.38 1698.69 1097.36 1698.75C1097.83 1711.42 1103.96 1725.38 1115.88 1731.94Z" fill="#FFC727"/>
<path d="M1111.59 1710.9C1112.43 1712.12 1113.39 1713.27 1114.46 1714.32C1115.59 1715.38 1116.87 1716.29 1118.28 1717.01C1119.13 1717.5 1120.03 1716.33 1119.18 1715.81C1114.11 1712.8 1110.46 1708.1 1108.98 1702.65C1108.98 1702.57 1108.94 1702.48 1108.88 1702.42C1108.81 1702.36 1108.72 1702.33 1108.63 1702.33C1108.54 1702.33 1108.45 1702.36 1108.39 1702.42C1108.33 1702.48 1108.29 1702.57 1108.29 1702.65C1108.78 1705.58 1109.9 1708.39 1111.59 1710.9Z" fill="#FFC727"/>
<path d="M1641.56 1069.22C1733.07 1081.73 1818.53 1008.51 1841.24 963.901C1863.96 919.288 1879.56 858.021 1873.18 842.694C1866.79 827.367 1823.5 907.984 1823.5 907.984C1823.5 907.984 1866.06 769.478 1851.19 748.841C1836.32 728.204 1763.92 880.589 1763.92 880.589C1763.92 880.589 1796.11 772.536 1780.68 770.323C1755.7 766.743 1707.01 903.358 1707.01 903.358C1707.01 903.358 1721.32 846.636 1706.45 849.975C1682.66 855.366 1607.91 1064.63 1641.56 1069.22Z" fill="#263238"/>
<path d="M1641.56 1069.22C1700.32 1076.9 1758.01 1050.11 1800.14 1013.14C1814.46 1000.79 1826.8 986.562 1836.79 970.901C1845.75 954.715 1853.13 937.805 1858.86 920.375C1864.96 903.076 1869.51 885.326 1872.45 867.314C1873.95 859.6 1873.95 851.695 1872.45 843.981C1870.26 835.332 1855.3 858.222 1853.29 860.877C1842.96 876.285 1833.79 892.416 1825 908.628L1822.09 907.582C1828.47 884.692 1865.55 760.186 1847.8 748.801C1843.52 749.686 1839.96 754.031 1836.87 757.29C1823.67 773.059 1813.73 791.121 1803.57 808.782C1790.24 832.597 1777.85 857.055 1765.94 881.434L1762.21 880.187C1768.51 858.745 1774.25 837.142 1778.75 815.379C1781.19 804.579 1782.72 793.617 1783.34 782.593C1783.34 779.133 1783.6 774.547 1781.15 772.134C1768.85 770.484 1753.47 801.742 1748.11 811.034C1732.85 841.115 1719.48 872.01 1708.08 903.559L1706.36 903.076C1722.56 836.861 1705.98 832.315 1678.03 894.548C1666.97 916.392 1612.24 1060.77 1641.77 1069.06L1641.56 1069.22ZM1641.56 1069.22C1611.9 1061.17 1666.37 916.03 1677.17 894.468C1705.21 829.539 1724.02 836.499 1707.86 903.64L1706.15 903.197C1717.28 871.412 1730.37 840.262 1745.37 809.908C1750.4 799.714 1756.35 789.943 1763.15 780.702C1766.5 775.676 1771.32 771.667 1777.04 769.157C1794.57 764.169 1783.13 808.017 1782.18 816.023C1777.9 837.987 1772.02 859.63 1765.81 881.152L1762.12 879.905C1773.91 855.245 1786.3 830.867 1799.63 806.891C1812.01 786.334 1822.64 763.646 1841.46 747.353C1870.48 730.457 1848.44 819.362 1846.3 829.821C1840.22 856.251 1832.93 882.399 1824.87 908.387L1822 907.3C1826.29 900.783 1867.17 822.54 1874.46 843.338C1876.05 851.314 1876.05 859.498 1874.46 867.475C1868.1 903.678 1855.68 938.708 1837.64 971.263C1797.61 1030.84 1718.71 1079.03 1641.64 1069.1L1641.56 1069.22Z" fill="#455A64"/>
<path d="M1841.24 963.901C1834.03 977.1 1824.88 989.287 1814.07 1000.11C1839.49 972.349 1862.63 893.904 1852.05 890.485C1841.46 887.065 1805.07 944.954 1805.07 944.954C1805.07 944.954 1817.07 873.388 1801.43 869.727C1785.78 866.066 1751.67 922.788 1751.67 922.788C1751.67 922.788 1753.38 865.785 1743.09 866.79C1732.81 867.796 1702.03 936.063 1702.03 936.063C1702.03 936.063 1702.85 895.393 1693.46 895.835C1684.08 896.278 1663.03 935.42 1654.89 952.155C1672.03 901.387 1694.88 852.872 1706.32 850.377C1720.81 847.119 1707.61 900.783 1706.92 903.639C1708.55 899.134 1756 767.185 1780.55 770.886C1795.6 773.019 1765.34 875.761 1763.84 880.951C1766.75 874.957 1836.44 729.049 1851.06 749.324C1865.67 769.599 1824.49 904.766 1823.37 908.386C1824.61 906.174 1866.75 827.93 1873 843.217C1879.26 858.503 1863.96 919.288 1841.24 963.901Z" fill="#EBEBEB"/>
<path d="M1091.7 1261.79C1066.8 1282.11 1048.84 1328.89 1055.74 1337.74C1062.64 1346.59 1080.56 1303.75 1080.56 1303.75C1080.56 1303.75 1060.84 1397.12 1079.23 1396.47C1091.19 1396.07 1102.25 1346.59 1102.25 1346.59C1102.25 1346.59 1106.32 1423.27 1127.06 1419C1143.05 1415.66 1131.35 1346.19 1131.35 1346.19C1131.35 1346.19 1146.86 1385.73 1158.82 1381.15C1170.78 1376.56 1146.86 1317.91 1146.86 1317.91C1146.86 1317.91 1158.82 1340.4 1165.47 1335.17C1172.11 1329.94 1157.19 1275.59 1140.95 1261.83C1124.71 1248.07 1091.7 1261.79 1091.7 1261.79Z" fill="#EBEBEB"/>
<path d="M1091.87 1287.98C1092.52 1304.07 1091.19 1329.7 1096.72 1329.05C1102.25 1328.41 1105.76 1287.98 1105.76 1287.98C1105.76 1287.98 1109.19 1342.73 1114.76 1342.73C1120.33 1342.73 1126.59 1293.85 1126.59 1293.85C1126.59 1293.85 1128.82 1328.37 1135.16 1327.08C1141.51 1325.79 1145.54 1182.5 1143.48 1138.01C1140.91 1081.33 1184.28 1067.65 1250.24 1070.91C1316.21 1074.17 1533.51 1085.23 1593.13 1084.59C1652.75 1083.94 1708.85 1070.26 1710.48 1061.78C1712.11 1053.29 1622.31 833.039 1541.05 770.484C1459.79 707.929 1336.95 651.288 1182.82 661.104C1028.7 670.919 996.896 709.377 1012.71 823.344C1021.28 885.255 1071.22 1011.41 1086.65 1126.7C1096.25 1198.39 1090.37 1250.97 1091.87 1287.98Z" fill="#263238"/>
<path d="M1283.46 765.013C1245.7 803.954 1245.36 852.59 1337.64 966.154C1429.91 1079.72 1553.57 1153.17 1568.82 1151.85C1584.08 1150.52 1538.82 1106.91 1538.82 1106.91C1538.82 1106.91 1632.56 1190.95 1645.72 1185.12C1658.87 1179.28 1602.86 1093.88 1602.86 1093.88C1602.86 1093.88 1640.53 1134.11 1648.42 1127.75C1656.3 1121.39 1609.84 1043.03 1609.84 1043.03C1609.84 1043.03 1631.27 1074.97 1640.4 1071.19C1653.77 1065.32 1628.06 920.053 1572.12 833.844C1516.19 747.635 1315.43 732.107 1283.46 765.013Z" fill="#263238"/>
<path d="M1283.46 765.013C1254.01 793.736 1255.13 830.143 1271.2 864.86C1285.99 897.847 1307.89 927.535 1330.48 956.218C1376.29 1013.49 1430.52 1064.37 1491.55 1107.36C1511.58 1121.94 1532.9 1134.9 1555.28 1146.09C1562.48 1149.15 1576.45 1155.95 1567.8 1142.07C1559.04 1129.75 1548.99 1118.28 1537.79 1107.84L1540.19 1105.87C1562.57 1125.54 1585.33 1144.93 1609.24 1162.91C1618.85 1170.6 1629.37 1177.24 1640.57 1182.7C1642.67 1183.59 1645.37 1183.91 1645.54 1183.23C1646.16 1181.43 1646.16 1179.51 1645.54 1177.71C1642.12 1166.32 1637.3 1155.33 1631.19 1144.97C1621.84 1127.99 1611.6 1111.34 1601.18 1094.92L1604.48 1092.63C1615 1104.46 1626.95 1115.1 1640.1 1124.33C1642.07 1125.46 1645.37 1127.27 1647.17 1126.5C1648.37 1121.96 1644.94 1115.4 1643.4 1110.73C1633.15 1087.81 1621.47 1065.47 1608.43 1043.83L1611.26 1042.27C1614.21 1046.69 1637.96 1079.76 1641.26 1066.97C1642.61 1057.97 1642.61 1048.85 1641.26 1039.85C1638.33 1015.43 1633.55 991.228 1626.94 967.442C1613.78 920.013 1596.6 872.785 1569.12 830.907C1554.64 810.431 1533.08 795.184 1510.06 783.76C1463.52 761.151 1410.76 750.531 1358.51 749.284C1345.4 749.002 1332.3 749.769 1319.33 751.577C1306.48 753.709 1292.85 756.324 1283.37 765.094L1283.46 765.013ZM1283.46 765.013C1292.89 756.203 1306.73 753.508 1319.38 751.296C1332.37 749.439 1345.5 748.604 1358.64 748.801C1430.94 750.451 1526.78 771.41 1570.58 829.982C1598.48 871.98 1615.88 919.208 1629.39 966.758C1632.34 977.539 1665.69 1103.17 1626.69 1065.88C1619.86 1059.08 1613.75 1051.68 1608.43 1043.79L1611.21 1042.19C1624.46 1063.9 1636.33 1086.33 1646.74 1109.37C1649.27 1114.59 1650.72 1120.21 1651.03 1125.94C1646.23 1143.44 1606.93 1100.68 1601.18 1095.05L1604.48 1092.75C1613.74 1107.8 1657.12 1172.28 1648.29 1185.28C1637.53 1198.67 1550.48 1118.3 1537.75 1107.72L1540.19 1105.87C1551.43 1116.53 1561.48 1128.25 1570.2 1140.82C1586.78 1171.8 1528.75 1134.83 1521.08 1130.08C1426.01 1069.37 1346.22 989.893 1287.32 897.203C1261.86 855.446 1242.23 804.437 1283.33 765.013H1283.46Z" fill="#455A64"/>
<path d="M1602.86 1093.8C1604.4 1096.13 1658.92 1179.2 1645.72 1184.96C1632.51 1190.71 1545.51 1112.75 1539.21 1107.15C1543.49 1111.18 1583.14 1150.48 1568.65 1151.73C1556.69 1152.77 1478.13 1107.8 1400.34 1033.7C1434.63 1063.83 1500.12 1102.57 1510.75 1102.08C1521.38 1101.6 1511.18 1072.8 1510.75 1071.59C1512.51 1072.92 1571.18 1117.05 1584.85 1113.59C1598.53 1110.13 1574.48 1052.6 1574.48 1052.6C1574.48 1052.6 1604.87 1080.76 1611.77 1079.11C1618.67 1077.47 1591.24 1013.86 1590.34 1012.09C1591.03 1012.78 1615.37 1037.24 1623.39 1035.06C1636.24 1031.56 1630.37 977.498 1630.37 977.498L1631.31 979.389C1643.7 1028.63 1647.09 1067.89 1640.23 1070.95C1631.87 1074.65 1612.2 1046.81 1609.93 1043.27C1613.14 1048.78 1655.92 1121.39 1648.5 1127.75C1641.09 1134.11 1604.48 1095.29 1602.86 1093.8Z" fill="#EBEBEB"/>
<path d="M1004.44 270.086C1204.39 270.086 1366.48 242.728 1366.48 208.979C1366.48 175.231 1204.39 147.873 1004.44 147.873C804.489 147.873 642.397 175.231 642.397 208.979C642.397 242.728 804.489 270.086 1004.44 270.086Z" fill="#FFC727"/>
<path opacity="0.1" d="M642.397 208.979C642.397 201.336 650.67 194.055 665.842 187.296C930.248 231.547 1089.95 200.049 1200.35 157.568C1300.18 168.55 1366.48 187.417 1366.48 208.979C1366.48 242.69 1204.38 270.046 1004.44 270.046C804.495 270.046 642.397 242.69 642.397 208.979Z" fill="black"/>
<path d="M629.625 208.979C632.24 184.52 690.83 172.774 712.346 167.262C872.043 135.08 1038.08 136.407 1199.97 152.056C1439.6 177.682 1440.29 240.196 1199.97 267.028C1038 282.476 871.958 282.677 712.217 250.937C690.101 245.225 632.24 233.599 629.497 209.18L629.625 208.979ZM630.054 208.979C632.625 232.794 691.43 244.621 712.603 249.65C776.379 262.603 841.613 267.752 906.675 270.649C1004.38 275.125 1102.31 272.65 1199.63 263.247C1436.17 238.346 1436.99 179.693 1199.63 153.585C1069.74 141.456 938.888 141.617 809.039 154.068C776.596 157.128 744.359 161.869 712.474 168.268C690.701 173.417 632.625 185.164 629.925 208.979H630.054Z" fill="#FFC727"/>
<path d="M1390.18 208.979C1387.82 235.731 1330.18 249.006 1306.82 255.403C1142.06 292.01 969.336 290.401 801.881 272.701C556.891 243.857 556.205 174.142 801.881 144.172C936.521 128.784 1072.67 128.986 1207.25 144.775C1240.86 148.753 1274.17 154.678 1306.99 162.516C1330.82 169.194 1387.82 182.187 1390.52 208.979H1390.18ZM1389.75 208.979C1387.1 182.71 1329.45 169.636 1306.35 163.602C1240.6 148.758 1172.97 142.844 1105.59 139.465C1004.34 134.296 902.803 137.108 802.052 147.873C560.063 176.032 559.291 241.886 802.052 271.132C936.535 285.071 1072.25 284.91 1206.7 270.649C1240.28 267.203 1273.6 261.829 1306.48 254.558C1330.05 248.443 1387.18 235.329 1389.88 209.14L1389.75 208.979Z" fill="#FFC727"/>
<path d="M618.696 213.807C620.796 293.579 620.839 381.357 618.696 461.089C616.596 381.357 616.596 293.579 618.696 213.807Z" fill="#FFC727"/>
<path d="M894.374 281.591C896.474 361.364 896.517 449.141 894.374 528.874C892.231 449.141 892.274 361.364 894.374 281.591Z" fill="#FFC727"/>
<path d="M1390.18 213.807C1392.28 344.91 1392.28 492.025 1390.18 623.128C1388.08 492.025 1388.08 344.91 1390.18 213.807Z" fill="#FFC727"/>
<path d="M653.97 240.317C656.07 338.876 656.113 449.504 653.97 548.103C651.87 449.504 651.912 338.916 653.97 240.317Z" fill="#FFC727"/>
<path d="M1194.18 298.769C1196.32 358.507 1196.28 421.263 1194.18 481.042C1192.04 421.263 1192 358.507 1194.18 298.769Z" fill="#FFC727"/>
<path d="M790.351 270.086C792.452 343.221 792.452 423.758 790.351 496.933C788.208 423.758 788.251 343.221 790.351 270.086Z" fill="#FFC727"/>
<path d="M1315.78 248.403C1317.88 346.962 1317.92 457.589 1315.78 556.188C1313.68 457.629 1313.72 347.002 1315.78 248.403Z" fill="#FFC727"/>
<path d="M618.696 577.51C616.51 546.93 616.51 516.248 618.696 485.669C620.903 516.247 620.903 546.931 618.696 577.51Z" fill="#FFC727"/>
<path d="M1259.63 390.609C1257.44 360.03 1257.44 329.348 1259.63 298.769C1261.84 329.347 1261.84 360.031 1259.63 390.609Z" fill="#FFC727"/>
<path d="M703.859 441.659C701.673 411.08 701.673 380.397 703.859 349.818C706.066 380.397 706.066 411.08 703.859 441.659Z" fill="#FFC727"/>
<path d="M1129.16 379.306C1126.96 348.727 1126.96 318.043 1129.16 287.465C1131.35 318.044 1131.35 348.726 1129.16 379.306Z" fill="#FFC727"/>
<path d="M829.783 385.983C827.576 355.405 827.576 324.721 829.783 294.142C831.969 324.722 831.969 355.404 829.783 385.983Z" fill="#FFC727"/>
<path d="M1167.31 206.727C1177.6 205.52 1256.5 195.785 1215.31 183.032C1192.85 176.113 1158.57 174.222 1134.91 171.768C1162.12 173.136 1189.6 173.699 1215.96 181.141C1221.44 182.71 1234.64 187.779 1227.06 194.336C1221.26 198 1214.7 200.456 1207.81 201.537C1194.46 204.189 1180.93 205.924 1167.31 206.727Z" fill="white"/>
<path d="M1092.17 209.944C1111.16 208.577 1130.02 208.014 1149.05 208.174C1130.22 210.754 1111.14 211.348 1092.17 209.944Z" fill="white"/>
<path d="M988.881 203.106C1001.68 203.768 1014.41 205.26 1026.98 207.572C1014.11 208.004 1001.25 206.496 988.881 203.106Z" fill="white"/>
<path d="M1092.17 170.803C1068.77 171.607 1045.41 172.492 1022.14 174.584C1010.48 175.55 998.867 176.837 987.381 178.607C977.566 180.457 966.894 181.624 958.364 186.934C957.77 187.315 957.267 187.809 956.891 188.384C956.514 188.96 956.271 189.603 956.178 190.273C956.224 189.582 956.428 188.908 956.775 188.297C957.123 187.686 957.606 187.153 958.193 186.733C966.422 180.82 977.223 179.251 987.081 177.078C998.61 174.906 1010.27 173.619 1021.93 172.492C1045.28 170.555 1068.74 169.964 1092.17 170.722V170.803Z" fill="white"/>
<path d="M1146.14 199.928C1152.65 199.003 1210.43 193.089 1179.95 186.331C1161.61 182.107 1141.59 181.463 1122.78 179.492C1144.21 180.377 1166.92 179.492 1187.54 186.693C1204.68 197.072 1151.62 199.888 1146.14 199.928Z" fill="white"/>
<path d="M1092.17 201.819C1105.71 200.076 1119.4 199.711 1133.02 200.733C1119.46 202.448 1105.73 202.799 1092.09 201.779L1092.17 201.819Z" fill="white"/>
<path d="M1017.81 197.796C1027.05 197.294 1036.3 198.177 1045.24 200.411C1036.01 200.934 1026.74 200.051 1017.81 197.796Z" fill="white"/>
<path d="M1092.17 178.929C1075.54 180.417 1058.83 180.136 1042.2 181.745C1029.13 183.193 1008.25 183.153 996.167 188.262C995.352 188.745 994.367 189.348 994.238 190.354C994.332 189.868 994.537 189.407 994.841 189.004C995.145 188.601 995.539 188.265 995.995 188.02C1010.1 181.222 1026.64 181.624 1042.03 179.733C1058.7 178.366 1075.46 178.768 1092.17 178.929Z" fill="white"/>
<path d="M1120.16 188.182C1113.56 225.473 1104.43 271.092 1097.45 305.085C1096.37 310.234 1095.39 315.101 1094.4 319.647C1093.42 324.193 1092.52 328.9 1091.66 332.842C1091.66 333.204 1091.66 333.526 1091.45 333.848C1091.1 335.618 1090.72 337.307 1090.42 338.876C1090.12 340.445 1089.9 341.21 1089.69 342.296C1089.47 343.382 1089.39 343.623 1089.26 344.267L1087.16 354.203L1038.34 348.531V348.008C1038.68 346.158 1040.01 339.56 1041.98 329.624C1042.2 328.699 1042.37 327.733 1042.58 326.727L1043.1 324.153C1043.31 322.865 1043.57 321.578 1043.87 320.13C1044.68 316.107 1045.54 311.481 1046.48 306.654C1053 273.345 1062.04 225.875 1068.81 185.969C1086.6 186.452 1103.75 187.216 1120.16 188.182Z" fill="#FFC727"/>
<path opacity="0.7" d="M1120.16 188.182C1113.56 225.473 1104.43 271.092 1097.45 305.085C1096.37 310.234 1095.39 315.101 1094.4 319.647C1093.42 324.193 1092.52 328.9 1091.66 332.842C1091.66 333.204 1091.66 333.526 1091.45 333.848C1091.1 335.618 1090.72 337.307 1090.42 338.876C1090.12 340.445 1089.9 341.21 1089.69 342.296C1089.47 343.382 1089.39 343.623 1089.26 344.267L1087.16 354.203L1038.34 348.531V348.008C1038.68 346.158 1040.01 339.56 1041.98 329.624C1042.2 328.699 1042.37 327.733 1042.58 326.727L1043.1 324.153C1043.31 322.865 1043.57 321.578 1043.87 320.13C1044.68 316.107 1045.54 311.481 1046.48 306.654C1053 273.345 1062.04 225.875 1068.81 185.969C1086.6 186.452 1103.75 187.216 1120.16 188.182Z" fill="white"/>
<path d="M1094.45 319.647C1090.16 340.485 1087.16 354.203 1087.16 354.203L1038.34 348.531C1038.34 348.531 1040.57 337.509 1043.96 320.371L1094.45 319.647Z" fill="#FFC727"/>
<path d="M1114.68 289.234C1109.08 290.827 1103.94 293.576 1099.63 297.28C1097.56 299.394 1095.89 301.83 1094.7 304.481C1094.1 305.849 1093.46 307.216 1092.95 308.504C1092.27 310.156 1091.48 311.768 1090.59 313.331C1090.37 313.693 1090.97 313.975 1091.19 313.613C1091.88 312.2 1092.71 310.852 1093.67 309.59L1096.5 306.05C1098.16 303.822 1099.94 301.687 1101.86 299.653C1105.9 296.065 1110.44 293.006 1115.36 290.562C1115.47 290.443 1115.54 290.297 1115.56 290.141C1115.58 289.986 1115.56 289.828 1115.48 289.687C1115.41 289.546 1115.29 289.428 1115.15 289.348C1115.01 289.267 1114.84 289.228 1114.68 289.234Z" fill="#FFC727"/>
<path d="M1109.49 278.654C1105.43 280.862 1101.89 283.818 1099.07 287.344C1097.69 289.073 1096.43 290.887 1095.3 292.775C1094.24 294.696 1093.32 296.685 1092.56 298.728C1092.56 299.09 1093.03 299.292 1093.2 298.97C1094.3 297.112 1095.5 295.312 1096.8 293.579C1098.1 291.817 1099.53 290.15 1101.09 288.591C1104.03 285.43 1107.19 282.459 1110.56 279.7C1110.99 279.177 1110.13 278.252 1109.49 278.654Z" fill="white"/>
<path d="M1043.36 252.385C1042.28 251.983 1041.43 253.552 1042.28 254.196C1051.29 261.075 1058.83 270.287 1059.43 281.39C1059.43 281.475 1059.46 281.557 1059.53 281.617C1059.59 281.678 1059.68 281.712 1059.77 281.712C1059.86 281.712 1059.95 281.678 1060.01 281.617C1060.08 281.557 1060.11 281.475 1060.11 281.39C1061.36 269.885 1055.49 256.65 1043.36 252.385Z" fill="#FFC727"/>
<path d="M1075.93 249.69C1075.32 245.546 1073.31 241.695 1070.19 238.708C1070.06 238.599 1069.89 238.533 1069.72 238.518C1069.54 238.504 1069.37 238.542 1069.22 238.628C1069.07 238.714 1068.96 238.842 1068.89 238.994C1068.83 239.146 1068.81 239.314 1068.86 239.472C1070.49 243.021 1071.92 246.647 1073.14 250.334C1073.68 252.181 1074.07 254.064 1074.3 255.966C1074.3 256.972 1074.3 257.937 1074.52 258.943C1074.43 259.813 1074.43 260.688 1074.52 261.558C1074.55 261.608 1074.6 261.648 1074.65 261.677C1074.71 261.705 1074.77 261.72 1074.84 261.72C1074.9 261.72 1074.96 261.705 1075.02 261.677C1075.08 261.648 1075.12 261.608 1075.16 261.558C1075.97 259.749 1076.38 257.806 1076.36 255.845C1076.47 253.785 1076.32 251.72 1075.93 249.69Z" fill="white"/>
<path d="M1117.98 222.294C1111.93 225.346 1106.75 229.702 1102.85 235.003C1098.95 240.305 1096.45 246.401 1095.56 252.787C1095.56 253.23 1096.2 253.391 1096.37 252.989C1098.77 247.323 1101.83 241.926 1105.5 236.897C1109.36 231.899 1113.82 227.336 1118.79 223.3C1119.35 222.737 1118.62 222.013 1117.98 222.294Z" fill="#FFC727"/>
<path d="M1105.03 215.094C1102 217.247 1099.63 220.103 1098.13 223.381C1097.37 224.949 1096.75 226.578 1096.29 228.249C1095.73 229.972 1095.43 231.758 1095.39 233.559C1095.39 233.961 1095.99 234.001 1096.16 233.559C1096.72 231.99 1097.06 230.34 1097.7 228.812C1098.37 227.191 1099.15 225.618 1100.06 224.105C1101.73 221.168 1103.96 218.594 1105.93 215.778C1106.28 215.376 1105.55 214.732 1105.03 215.094Z" fill="white"/>
<path d="M1077.04 215.174C1076.73 212.317 1075.99 209.515 1074.86 206.847C1072.52 201.565 1068.53 197.075 1063.41 193.974C1062.81 193.612 1062.17 194.457 1062.69 194.899C1066.57 198.376 1069.77 202.46 1072.16 206.968C1073.32 209.186 1074.25 211.503 1074.94 213.887C1075.33 215.21 1075.63 216.554 1075.84 217.91C1075.84 218.996 1076.53 220.967 1075.84 221.933C1075.59 222.255 1075.84 222.657 1076.32 222.375C1076.66 222.001 1076.92 221.567 1077.08 221.097C1077.24 220.627 1077.3 220.132 1077.26 219.64C1077.32 218.148 1077.24 216.655 1077.04 215.174Z" fill="#FFC727"/>
<path d="M1071.22 303.596C1070.99 300.786 1069.75 298.133 1067.7 296.073C1067.06 295.55 1065.81 296.073 1066.16 296.958C1067.33 299.149 1068.32 301.422 1069.12 303.757C1069.77 306.202 1069.92 308.743 1069.54 311.239C1069.54 311.561 1070.02 311.843 1070.14 311.481C1071.18 308.974 1071.55 306.267 1071.22 303.596Z" fill="white"/>
<path d="M1049.36 301.745C1047.41 298.744 1044.81 296.166 1041.73 294.182C1041.04 293.74 1040.48 294.705 1040.91 295.188C1043.14 297.741 1045.19 300.428 1047.04 303.234C1048.89 306.002 1050.55 308.877 1052.01 311.843C1052.01 312.164 1052.79 311.843 1052.74 311.601C1052.39 308.123 1051.24 304.759 1049.36 301.745Z" fill="#FFC727"/>
<path d="M1134.52 473.279C1129.51 482.933 1141.76 520.989 1131.73 530.242C1104.13 555.746 1048.71 555.746 1018.15 550.356C987.595 544.965 935.991 526.219 920.09 492.91C914.346 480.841 940.448 449.624 939.548 438.924C938.648 428.223 912.503 420.861 920.433 384.052C928.362 347.244 971.008 329.463 995.524 328.095C1040.04 326.279 1084.4 334.097 1125.18 350.945C1147.46 360.599 1180.38 391.696 1173.52 428.666C1166.67 465.635 1139.49 463.664 1134.52 473.279Z" fill="#FFC727"/>
<path opacity="0.7" d="M1134.52 473.279C1129.51 482.933 1141.76 520.989 1131.73 530.242C1104.13 555.746 1048.71 555.746 1018.15 550.356C987.595 544.965 935.991 526.219 920.09 492.91C914.346 480.841 940.448 449.624 939.548 438.924C938.648 428.223 912.503 420.861 920.433 384.052C928.362 347.244 971.008 329.463 995.524 328.095C1040.04 326.279 1084.4 334.097 1125.18 350.945C1147.46 360.599 1180.38 391.696 1173.52 428.666C1166.67 465.635 1139.49 463.664 1134.52 473.279Z" fill="white"/>
<path d="M1128.35 445.4L948.72 413.942C950.992 407.666 1008.42 380.472 1047.04 387.27C1085.66 394.069 1128.73 438.803 1128.35 445.4Z" fill="#FFC727"/>
<path opacity="0.1" d="M1128.35 445.4L948.72 413.942C950.532 411.6 952.912 409.697 955.664 408.39C966.31 405.846 977.338 405.016 988.28 405.936C1009.15 408.752 1024.24 419.735 1040.01 422.51C1055.79 425.286 1074.09 420.177 1094.62 424.683C1105.15 427.577 1115.08 432.104 1124.02 438.079C1126.07 440.159 1127.55 442.67 1128.35 445.4Z" fill="black"/>
<path d="M1140.91 452.682C1140.18 453.727 1122.65 445.119 1107.43 445.561C1085.4 446.205 1062.94 469.296 1031.66 463.784C1000.37 458.273 988.409 429.108 968.093 420.982C954.121 415.39 934.405 417.482 934.148 416.195C933.891 414.907 966.55 407.103 987.295 409.919C1008.04 412.735 1023.04 424.844 1038.73 427.619C1054.41 430.395 1073.02 424.361 1093.59 428.706C1114.16 433.05 1141.59 451.595 1140.91 452.682Z" fill="#FFC727"/>
<path opacity="0.1" d="M1018.15 452.319C1010.83 453.406 1002.38 438.32 1010.7 436.671C1019.01 435.021 1022.05 451.756 1018.15 452.319Z" fill="black"/>
<path opacity="0.1" d="M1048.67 457.71C1055.1 461.21 1068.77 450.027 1061.53 445.642C1054.29 441.257 1045.28 455.86 1048.67 457.71Z" fill="black"/>
<path d="M1101.22 481.404C1101.22 481.726 1101.99 481.163 1102.03 480.841C1103.66 472.997 1106.88 464.267 1114.89 463.261C1115.15 463.261 1115.23 462.859 1114.89 462.819C1105.59 462.216 1101.43 473.721 1101.22 481.404Z" fill="#263238"/>
<path d="M1111.03 495.364C1130.71 499.628 1136.32 470.664 1118.06 466.681C1099.8 462.698 1094.45 491.783 1111.03 495.364Z" fill="#263238"/>
<path d="M1118.79 495.283C1122 494.036 1125.39 491.502 1128.91 491.783C1132.42 492.065 1135.29 495.806 1137.22 499.427C1137.22 499.789 1137.78 499.427 1137.86 499.185C1139.15 493.352 1137.86 487.117 1131.48 484.824C1125.09 482.531 1120.08 487.318 1117.33 492.869C1116.82 493.956 1117.5 495.766 1118.79 495.283Z" fill="#263238"/>
<path d="M967.236 457.791C967.236 458.072 966.636 457.308 966.679 456.986C968.222 448.941 968.565 439.889 961.407 436.188C961.15 436.188 961.407 435.665 961.407 435.746C970.622 438.28 970.151 450.55 967.236 457.791Z" fill="#263238"/>
<path d="M952.706 467.445C932.733 464.71 938.691 435.826 957.249 438.32C975.808 440.814 969.507 469.738 952.706 467.445Z" fill="#263238"/>
<path d="M945.506 464.71C943.02 462.497 940.834 458.957 937.448 458.032C934.062 457.107 929.904 459.681 926.733 462.337C926.39 462.578 926.133 462.337 926.219 461.894C927.29 455.98 930.847 450.389 937.705 450.67C944.563 450.952 947.392 456.865 947.777 463.02C947.863 464.187 946.534 465.635 945.506 464.71Z" fill="#263238"/>
<path d="M1016.7 512.26C1013.1 522.516 1008.26 532.354 1002.3 541.586C996.526 550.881 989.559 559.474 981.552 567.171C981.252 567.453 981.552 567.774 981.937 567.573C991.079 560.677 998.93 552.397 1005.17 543.074C1011.1 533.602 1015.22 523.227 1017.34 512.421C1017.34 512.349 1017.32 512.279 1017.27 512.221C1017.22 512.164 1017.16 512.123 1017.09 512.104C1017.01 512.086 1016.93 512.091 1016.86 512.119C1016.79 512.147 1016.73 512.197 1016.7 512.26Z" fill="#FFC727"/>
<path d="M1024.03 527.064C1020.17 554.097 1005.94 579.682 988.452 601.164C988.407 601.206 988.371 601.256 988.347 601.312C988.323 601.367 988.31 601.426 988.31 601.486C988.31 601.545 988.323 601.605 988.347 601.66C988.371 601.715 988.407 601.765 988.452 601.807C988.497 601.85 988.551 601.883 988.609 601.906C988.668 601.929 988.731 601.941 988.795 601.941C988.859 601.941 988.922 601.929 988.981 601.906C989.039 601.883 989.093 601.85 989.138 601.807C1011.43 582.297 1022.18 555.223 1024.67 527.104C1024.71 526.782 1024.07 526.581 1024.03 527.064Z" fill="#FFC727"/>
<path d="M1016.78 534.184C1014.88 539.647 1012.39 544.916 1009.37 549.913C1006.4 554.948 1003 559.751 999.21 564.274C999.21 564.516 999.21 564.757 999.51 564.556C1004.05 560.541 1007.9 555.885 1010.91 550.758C1013.82 545.571 1016.01 540.055 1017.43 534.345C1017.43 534.273 1017.4 534.203 1017.36 534.145C1017.31 534.088 1017.24 534.047 1017.17 534.028C1017.1 534.01 1017.02 534.015 1016.95 534.043C1016.88 534.071 1016.82 534.121 1016.78 534.184Z" fill="white"/>
<path d="M1051.29 562.142C1043.54 553.024 1037.88 542.508 1034.66 531.247C1034.66 530.966 1034.06 531.006 1034.1 531.247C1034.57 537.185 1036.27 542.979 1039.11 548.304C1042.1 553.658 1046.04 558.489 1050.77 562.585C1051.11 562.987 1051.59 562.504 1051.29 562.142Z" fill="#FFC727"/>
<path d="M1058.61 530.604C1056.69 526.782 1054.93 523.001 1053.39 519.058C1051.72 515.187 1050.6 511.131 1050.04 506.99C1050.04 506.507 1049.27 506.547 1049.19 506.99C1048.34 511.292 1048.7 515.726 1050.21 519.863C1051.9 524.027 1054.47 527.83 1057.76 531.046C1058.1 531.247 1058.87 530.966 1058.61 530.604Z" fill="white"/>
<path d="M1004.44 485.025C1003.71 486.111 1002.81 487.036 1002.12 488.123L999.81 491.421C998.267 493.594 996.681 495.685 995.138 497.777C993.595 499.869 992.095 501.8 990.552 503.892C989.009 505.984 987.209 507.915 985.709 510.208C985.663 510.298 985.648 510.399 985.666 510.498C985.684 510.596 985.734 510.687 985.809 510.757C985.885 510.828 985.981 510.875 986.086 510.892C986.191 510.909 986.299 510.894 986.395 510.851C990.797 507.62 994.605 503.734 997.667 499.346C999.269 497.18 1000.7 494.908 1001.95 492.548C1002.6 491.341 1003.2 490.174 1003.75 488.967C1004.31 487.761 1004.61 486.513 1005.08 485.266C1005.21 484.904 1004.65 484.743 1004.44 485.025Z" fill="white"/>
<path d="M990.081 519.702C989.066 520.648 987.977 521.522 986.823 522.317C985.709 523.242 984.509 524.127 983.309 524.972C981.025 526.55 978.634 527.988 976.151 529.276C971.149 531.923 965.898 534.132 960.464 535.873C960.351 535.873 960.242 535.916 960.161 535.991C960.081 536.067 960.036 536.169 960.036 536.276C960.036 536.382 960.081 536.485 960.161 536.56C960.242 536.636 960.351 536.678 960.464 536.678C966.418 536.248 972.184 534.527 977.308 531.65C979.835 530.209 982.204 528.539 984.38 526.661C985.452 525.736 986.523 524.73 987.552 523.684C988.581 522.638 989.395 521.271 990.424 520.144C990.852 519.822 990.338 519.38 990.081 519.702Z" fill="#FFC727"/>
<path d="M1144.12 535.23C1142.78 534.124 1141.34 533.115 1139.83 532.212C1138.21 531.126 1136.66 529.919 1135.12 528.713C1132.11 526.321 1129.25 523.769 1126.55 521.069C1123.88 518.375 1121.39 515.526 1119.09 512.541C1116.91 509.465 1114.94 506.268 1113.18 502.967C1112.96 502.604 1112.36 502.967 1112.45 503.248C1114.54 510.713 1118.5 517.606 1123.98 523.362C1126.66 526.118 1129.7 528.55 1133.02 530.603C1136.24 533.004 1139.97 534.745 1143.95 535.712C1144 535.696 1144.04 535.669 1144.08 535.634C1144.12 535.599 1144.14 535.557 1144.16 535.51C1144.18 535.464 1144.18 535.414 1144.18 535.366C1144.17 535.317 1144.15 535.27 1144.12 535.23Z" fill="#FFC727"/>
<path d="M1104.3 523.081C1097.85 514.614 1093.46 504.917 1091.45 494.68C1091.39 494.54 1091.29 494.422 1091.15 494.347C1091.01 494.272 1090.85 494.243 1090.69 494.267C1090.54 494.291 1090.39 494.365 1090.29 494.477C1090.18 494.589 1090.12 494.732 1090.12 494.881C1090.73 505.65 1095.57 515.825 1103.7 523.443C1104 523.724 1104.52 523.362 1104.3 523.081Z" fill="white"/>
<path d="M1123.55 549.309C1118.12 545.603 1112.95 541.572 1108.08 537.241C1103.3 532.703 1098.92 527.82 1094.96 522.638C1094.91 522.562 1094.84 522.495 1094.76 522.443C1094.69 522.39 1094.6 522.352 1094.51 522.332C1094.41 522.311 1094.31 522.308 1094.22 522.323C1094.12 522.337 1094.03 522.369 1093.95 522.417C1093.87 522.464 1093.8 522.527 1093.74 522.6C1093.69 522.673 1093.65 522.756 1093.63 522.844C1093.6 522.932 1093.6 523.023 1093.62 523.112C1093.63 523.2 1093.67 523.286 1093.72 523.362C1096.81 529.279 1101.05 534.6 1106.23 539.051C1111.19 543.567 1117 547.169 1123.38 549.672C1123.55 549.953 1123.8 549.511 1123.55 549.309Z" fill="#FFC727"/>
<path d="M958.878 475.089C945.629 485.561 929.04 491.591 911.732 492.226C911.175 492.226 911.046 493.031 911.732 493.111C929.433 495.686 949.192 489.812 959.821 475.733C959.864 475.371 959.264 474.807 958.878 475.089Z" fill="#FFC727"/>
<path d="M974.051 468.33C972.227 472.011 969.954 475.48 967.279 478.669C964.676 481.877 961.809 484.89 958.707 487.68C958.235 488.082 958.707 488.766 959.393 488.485C963.255 486.323 966.597 483.433 969.208 479.997C971.755 476.53 973.614 472.659 974.694 468.572C974.779 468.25 974.437 468.009 974.051 468.33Z" fill="white"/>
<path d="M958.235 494.398C954.077 498.887 949.188 502.73 943.749 505.783C938.414 508.941 932.646 511.404 926.605 513.104C926.39 513.104 926.605 513.466 926.605 513.426C933.097 512.701 939.342 510.655 944.906 507.432C950.384 504.086 955.127 499.784 958.878 494.76C959.007 494.398 958.493 494.117 958.235 494.398Z" fill="#FFC727"/>
<path d="M1083.13 527.627C1081.31 524.287 1079.71 520.848 1078.33 517.328C1078.33 516.926 1077.64 517.328 1077.69 517.328C1078.39 521.113 1079.63 524.792 1081.37 528.27C1083.16 531.694 1085.54 534.819 1088.4 537.523C1088.62 537.764 1089.05 537.523 1088.83 537.201C1086.77 534.224 1084.93 530.925 1083.13 527.627Z" fill="white"/>
<path d="M1066.24 511.254C1059.61 501.75 1054.95 491.16 1052.49 480.037C1052.49 479.715 1051.97 479.835 1051.93 480.037C1051.53 485.943 1052.62 491.854 1055.1 497.294C1057.6 502.669 1061.21 507.523 1065.73 511.575C1065.78 511.606 1065.85 511.622 1065.91 511.62C1065.98 511.619 1066.04 511.6 1066.09 511.566C1066.15 511.533 1066.19 511.486 1066.22 511.43C1066.24 511.375 1066.25 511.314 1066.24 511.254Z" fill="#FFC727"/>
<path d="M1182.35 425.125C1177.63 429.931 1172.6 434.471 1167.31 438.722C1161.91 442.933 1156.03 446.563 1149.78 449.544C1149.35 449.745 1149.78 450.429 1150.12 450.308C1164.04 446.339 1175.78 437.455 1182.87 425.528C1183.04 425.206 1182.61 424.884 1182.35 425.125Z" fill="#FFC727"/>
<path d="M944.734 426.01C942.12 425.286 939.334 424.924 936.677 424.28C934.019 423.637 931.319 422.953 928.662 422.148C926.004 421.344 923.261 420.499 920.604 419.453C917.947 418.407 915.546 417.2 912.975 416.235C912.878 416.171 912.758 416.145 912.642 416.164C912.525 416.183 912.422 416.245 912.353 416.335C912.285 416.426 912.258 416.538 912.278 416.648C912.298 416.757 912.364 416.855 912.46 416.919C916.817 420.627 922.001 423.376 927.633 424.964C933.12 426.813 939.005 427.38 944.777 426.614C945.12 426.413 945.034 426.01 944.734 426.01Z" fill="#FFC727"/>
<path d="M930.076 412.494C926.23 409.836 922.683 406.816 919.489 403.483C916.44 400.034 913.756 396.316 911.475 392.38C911.217 391.937 910.617 392.38 910.703 392.701C911.692 397.37 913.976 401.711 917.325 405.285C920.674 408.859 924.969 411.54 929.776 413.057C929.852 413.075 929.933 413.069 930.004 413.038C930.076 413.008 930.134 412.955 930.169 412.889C930.204 412.823 930.214 412.748 930.197 412.676C930.18 412.604 930.137 412.54 930.076 412.494Z" fill="#FFC727"/>
<path d="M1175.24 392.621C1175.24 392.259 1174.51 392.339 1174.51 392.621C1174.79 398.633 1173.97 404.645 1172.11 410.402C1170.38 416.344 1167.24 421.844 1162.94 426.493C1162.9 426.555 1162.88 426.627 1162.89 426.699C1162.9 426.771 1162.93 426.838 1162.99 426.889C1163.04 426.94 1163.11 426.972 1163.19 426.981C1163.27 426.989 1163.34 426.973 1163.41 426.936C1165.88 424.781 1168.14 422.41 1170.14 419.855C1171.96 417.175 1173.4 414.281 1174.42 411.247C1176.65 405.249 1176.93 398.769 1175.24 392.621Z" fill="#FFC727"/>
<path d="M989.909 332.801C988.668 331.558 987.221 330.512 985.623 329.704C984.023 328.877 982.306 328.267 980.523 327.894C980.279 327.803 980.006 327.807 979.765 327.905C979.524 328.003 979.334 328.187 979.237 328.416C979.141 328.646 979.145 328.902 979.249 329.128C979.354 329.355 979.55 329.533 979.794 329.623C981.282 330.271 982.715 331.024 984.08 331.876C985.409 332.721 986.738 333.525 987.981 334.491C990.554 336.481 992.756 338.861 994.495 341.531C994.552 341.578 994.622 341.609 994.696 341.619C994.771 341.63 994.847 341.619 994.916 341.589C994.984 341.559 995.042 341.511 995.082 341.451C995.121 341.39 995.141 341.32 995.138 341.249C994.175 338.067 992.377 335.163 989.909 332.801Z" fill="#FFC727"/>
<path d="M934.448 347.043C934.469 346.909 934.442 346.772 934.371 346.655C934.3 346.537 934.188 346.445 934.055 346.394C933.921 346.343 933.773 346.336 933.635 346.373C933.496 346.41 933.375 346.49 933.291 346.6C930.606 351.16 929.288 356.318 929.476 361.525C929.732 366.643 931.196 371.645 933.762 376.168C933.81 376.219 933.874 376.255 933.944 376.27C934.015 376.285 934.089 376.279 934.156 376.252C934.223 376.225 934.279 376.179 934.316 376.121C934.353 376.062 934.369 375.994 934.362 375.926C931.54 366.477 931.57 356.477 934.448 347.043Z" fill="#FFC727"/>
<path d="M941.906 370.294C941.906 369.996 941.779 369.709 941.554 369.498C941.329 369.287 941.024 369.168 940.706 369.168C940.387 369.168 940.082 369.287 939.857 369.498C939.632 369.709 939.506 369.996 939.506 370.294C939.402 373.946 940.11 377.578 941.586 380.958C943.062 384.339 945.273 387.393 948.078 389.926C948.378 390.167 948.806 389.926 948.592 389.523C944.954 383.623 942.677 377.073 941.906 370.294Z" fill="white"/>
<path d="M1037.7 351.991C1037.59 351.839 1037.43 351.728 1037.24 351.679C1037.05 351.63 1036.85 351.646 1036.67 351.724C1036.5 351.802 1036.36 351.937 1036.28 352.104C1036.2 352.271 1036.19 352.459 1036.24 352.634C1037.56 357.11 1038.62 361.649 1039.41 366.231C1040.06 370.919 1040.06 375.664 1039.41 380.352C1039.41 380.673 1039.88 380.955 1040.06 380.593C1042.2 376.011 1043.1 371.004 1042.69 366.015C1042.28 361.026 1040.56 356.21 1037.7 351.991Z" fill="#FFC727"/>
<path d="M1060.16 343.462C1056.88 346.897 1054.39 350.921 1052.83 355.289C1051.35 359.692 1050.54 364.27 1050.43 368.886C1050.43 368.972 1050.46 369.054 1050.53 369.114C1050.59 369.174 1050.68 369.208 1050.77 369.208C1050.86 369.208 1050.95 369.174 1051.01 369.114C1051.08 369.054 1051.11 368.972 1051.11 368.886C1052 364.489 1053.36 360.189 1055.19 356.054C1056.94 352.031 1058.74 348.008 1060.84 343.985C1060.89 343.543 1060.16 343.1 1060.16 343.462Z" fill="white"/>
<path d="M1066.07 360.921C1062.97 364.912 1060.62 369.376 1059.13 374.116C1059.13 374.438 1059.6 374.679 1059.73 374.357C1061.89 369.951 1064.4 365.702 1067.23 361.645C1067.62 361.082 1066.59 360.318 1066.07 360.921Z" fill="#FFC727"/>
<path d="M1109.88 338.796C1104.24 339.734 1098.93 341.973 1094.45 345.313C1090.09 348.793 1086.67 353.189 1084.46 358.145C1084.41 358.22 1084.4 358.309 1084.43 358.392C1084.45 358.475 1084.51 358.545 1084.59 358.588C1084.67 358.63 1084.76 358.642 1084.85 358.619C1084.94 358.596 1085.01 358.542 1085.06 358.467C1088.04 354.153 1091.8 350.356 1096.16 347.243C1100.38 344.005 1105.09 341.374 1110.13 339.439C1110.22 339.407 1110.3 339.343 1110.34 339.26C1110.38 339.177 1110.38 339.082 1110.35 338.997C1110.31 338.911 1110.24 338.842 1110.16 338.804C1110.07 338.767 1109.97 338.764 1109.88 338.796Z" fill="#FFC727"/>
<path d="M1161.69 411.247C1160.02 413.902 1158.14 416.476 1156.29 419.011C1154.47 421.621 1152.29 424 1149.82 426.091C1149.56 426.091 1149.82 426.775 1150.25 426.574C1152.96 424.668 1155.47 422.526 1157.75 420.177C1160 417.801 1161.8 415.08 1163.06 412.132C1163.41 411.086 1162.21 410.402 1161.69 411.247Z" fill="white"/>
<path d="M1163.97 380.754C1163.71 379.748 1162.25 380.11 1162.21 380.995C1162.21 382.604 1162.21 384.213 1162.21 385.782C1162.1 387.402 1161.88 389.014 1161.57 390.61C1160.88 393.799 1159.67 396.867 1157.96 399.701C1157.96 399.983 1158.26 400.345 1158.52 400.063C1160.68 397.339 1162.31 394.274 1163.32 391.012C1164.48 387.702 1164.7 384.168 1163.97 380.754Z" fill="#FFC727"/>
<path d="M1127.58 394.632C1125.2 400.528 1122.04 406.123 1118.19 411.287C1117.93 411.608 1118.19 412.011 1118.66 411.729C1123.81 407.304 1127.4 401.507 1128.95 395.115C1129.08 394.391 1127.96 393.828 1127.58 394.632Z" fill="white"/>
<path d="M1122.65 374.237C1121.7 377.616 1120.8 381.035 1119.69 384.414C1118.57 387.822 1117.13 391.133 1115.4 394.31C1115.35 394.396 1115.34 394.497 1115.37 394.591C1115.4 394.685 1115.46 394.765 1115.55 394.813C1115.65 394.861 1115.75 394.873 1115.85 394.847C1115.95 394.821 1116.04 394.758 1116.09 394.672C1120.79 388.798 1123.75 381.857 1124.66 374.558C1124.79 373.311 1122.95 373.191 1122.65 374.237Z" fill="#FFC727"/>
<path d="M1108.98 360.197C1105.72 362.299 1103 365.045 1101 368.243C1098.93 371.33 1097.37 374.694 1096.37 378.219C1096.37 378.287 1096.38 378.355 1096.42 378.414C1096.46 378.472 1096.51 378.518 1096.58 378.545C1096.65 378.572 1096.72 378.578 1096.79 378.563C1096.86 378.548 1096.93 378.512 1096.97 378.461C1098.69 375.276 1100.71 372.246 1103.02 369.409C1105.25 366.553 1107.78 363.979 1110.09 361.364C1110.35 360.64 1109.7 359.755 1108.98 360.197Z" fill="white"/>
<path d="M996.21 357.099C994.44 352.207 991.045 347.977 986.523 345.031C986.18 344.83 985.666 345.312 985.923 345.634C987.471 347.583 988.902 349.611 990.209 351.709C991.624 353.76 992.995 355.732 994.195 358.065C996.564 362.429 998.253 367.089 999.21 371.903C999.21 371.989 999.246 372.071 999.31 372.131C999.375 372.191 999.462 372.225 999.553 372.225C999.644 372.225 999.731 372.191 999.795 372.131C999.86 372.071 999.896 371.989 999.896 371.903C999.557 366.81 998.311 361.806 996.21 357.099Z" fill="#FFC727"/>
<path d="M974.951 353.841C974.155 352.372 973.268 350.948 972.294 349.577C970.563 346.701 968.105 344.269 965.136 342.497C965.012 342.433 964.868 342.409 964.728 342.429C964.588 342.45 964.459 342.513 964.361 342.609C964.263 342.706 964.202 342.83 964.187 342.962C964.172 343.095 964.204 343.228 964.279 343.341C966.034 345.856 967.997 348.237 970.151 350.462C971.136 351.669 972.122 352.835 973.065 354.082C973.536 354.726 974.008 355.37 974.437 356.053C975.009 356.716 975.458 357.464 975.765 358.266C975.765 358.588 976.451 358.548 976.408 358.266C976.231 356.717 975.736 355.214 974.951 353.841Z" fill="white"/>
<path d="M1009.45 333.727C1006.43 329.149 1002.31 325.304 997.41 322.503C997.34 322.469 997.261 322.459 997.185 322.473C997.108 322.488 997.039 322.527 996.989 322.583C996.939 322.639 996.911 322.71 996.91 322.783C996.908 322.856 996.933 322.928 996.981 322.986C1001.12 326.554 1004.75 330.611 1007.78 335.054C1010.91 339.429 1013.21 344.272 1014.6 349.375C1014.6 349.778 1015.28 349.375 1015.24 349.375C1014.49 343.839 1012.52 338.51 1009.45 333.727Z" fill="white"/>
<path d="M1040.53 501.961C1038.73 498.38 1037.3 494.65 1036.24 490.818C1035.1 487.039 1034.3 483.177 1033.84 479.272C1033.81 479.173 1033.74 479.085 1033.66 479.023C1033.57 478.961 1033.46 478.927 1033.35 478.927C1033.24 478.927 1033.13 478.961 1033.04 479.023C1032.95 479.085 1032.89 479.173 1032.86 479.272C1032.38 483.32 1032.73 487.415 1033.88 491.341C1035.16 495.271 1037.21 498.942 1039.93 502.162C1040.23 502.645 1040.7 502.444 1040.53 501.961Z" fill="white"/>
<path d="M1024.2 484.462C1022.48 487.881 1020.4 491.129 1017.98 494.157C1015.66 497.261 1013.02 500.145 1010.1 502.766C1010.1 502.766 1010.1 503.208 1010.4 503.087C1014.07 501.179 1017.27 498.56 1019.78 495.404C1022.25 492.215 1023.96 488.566 1024.8 484.703C1024.88 484.381 1024.33 484.14 1024.2 484.462Z" fill="#FFC727"/>
<path d="M736.133 1872.82H728.118V1886.05C728.118 1886.95 727.739 1887.81 727.064 1888.44C726.389 1889.07 725.473 1889.43 724.518 1889.43C723.563 1889.43 722.648 1889.07 721.972 1888.44C721.297 1887.81 720.918 1886.95 720.918 1886.05V1850.09C720.918 1849.65 721.011 1849.21 721.193 1848.8C721.374 1848.39 721.64 1848.02 721.975 1847.71C722.31 1847.4 722.707 1847.16 723.144 1846.99C723.58 1846.83 724.047 1846.74 724.518 1846.75H736.133C738.025 1846.65 739.918 1846.91 741.696 1847.53C743.475 1848.14 745.102 1849.08 746.479 1850.3C747.855 1851.53 748.951 1853 749.7 1854.63C750.449 1856.27 750.835 1858.02 750.835 1859.8C750.835 1861.58 750.449 1863.34 749.7 1864.97C748.951 1866.61 747.855 1868.08 746.479 1869.3C745.102 1870.52 743.475 1871.47 741.696 1872.08C739.918 1872.69 738.025 1872.96 736.133 1872.86V1872.82ZM728.118 1866.18H736.133C737.907 1866.18 739.607 1865.52 740.861 1864.34C742.115 1863.16 742.82 1861.57 742.82 1859.9C742.82 1858.24 742.115 1856.64 740.861 1855.47C739.607 1854.29 737.907 1853.63 736.133 1853.63H728.118V1866.18Z" fill="#263238"/>
<path d="M777.494 1879.33H761.678L758.506 1887.38C758.238 1888.01 757.771 1888.56 757.166 1888.94C756.562 1889.32 755.848 1889.52 755.12 1889.51C754.709 1889.57 754.289 1889.57 753.877 1889.51C752.982 1889.19 752.258 1888.55 751.857 1887.73C751.457 1886.91 751.413 1885.97 751.734 1885.13L766.136 1849.16C766.412 1848.52 766.887 1847.98 767.499 1847.6C768.111 1847.22 768.831 1847.02 769.564 1847.03C770.301 1847.01 771.026 1847.2 771.64 1847.58C772.255 1847.97 772.727 1848.52 772.993 1849.16L787.351 1885.13C787.684 1885.97 787.646 1886.91 787.244 1887.73C786.843 1888.56 786.111 1889.19 785.208 1889.51C784.812 1889.58 784.405 1889.58 784.008 1889.51C783.284 1889.53 782.572 1889.33 781.972 1888.95C781.373 1888.57 780.916 1888.02 780.665 1887.38L777.494 1879.33ZM774.836 1872.62L769.564 1859.5L764.421 1872.62H774.836Z" fill="#263238"/>
<path d="M792.195 1867.51C792.3 1863.32 793.641 1859.25 796.069 1855.75C798.496 1852.24 801.915 1849.43 805.942 1847.64C809.97 1845.85 814.448 1845.15 818.878 1845.61C823.307 1846.07 827.513 1847.68 831.026 1850.25C831.419 1850.53 831.75 1850.87 831.998 1851.27C832.245 1851.67 832.406 1852.11 832.47 1852.57C832.534 1853.02 832.5 1853.49 832.37 1853.93C832.239 1854.38 832.016 1854.79 831.712 1855.16C831.089 1855.88 830.186 1856.35 829.199 1856.46C828.212 1856.56 827.221 1856.3 826.44 1855.72C823.507 1853.59 819.905 1852.43 816.196 1852.42C814.026 1852.38 811.87 1852.76 809.859 1853.53C807.848 1854.3 806.024 1855.44 804.496 1856.89C802.952 1858.24 801.722 1859.87 800.881 1861.69C800.039 1863.51 799.605 1865.47 799.605 1867.45C799.605 1869.43 800.039 1871.39 800.881 1873.2C801.722 1875.02 802.952 1876.65 804.496 1878.01C806.033 1879.44 807.86 1880.57 809.87 1881.33C811.879 1882.09 814.03 1882.46 816.196 1882.43C819.331 1882.41 822.405 1881.62 825.111 1880.14V1871.77H815.854C814.875 1871.76 813.94 1871.39 813.244 1870.75C812.548 1870.1 812.147 1869.23 812.125 1868.31C812.125 1867.85 812.222 1867.4 812.41 1866.98C812.598 1866.56 812.874 1866.18 813.222 1865.86C813.569 1865.55 813.981 1865.3 814.433 1865.13C814.885 1864.96 815.368 1864.88 815.854 1864.89H828.712C829.197 1864.88 829.68 1864.96 830.132 1865.13C830.584 1865.3 830.996 1865.55 831.343 1865.86C831.691 1866.18 831.967 1866.56 832.155 1866.98C832.344 1867.4 832.441 1867.85 832.44 1868.31V1881.79C832.461 1882.14 832.461 1882.48 832.44 1882.83C832.424 1882.93 832.424 1883.02 832.44 1883.11C832.187 1883.7 831.755 1884.21 831.198 1884.56C826.984 1887.64 821.795 1889.31 816.454 1889.31C813.331 1889.39 810.222 1888.89 807.308 1887.83C804.393 1886.78 801.73 1885.19 799.474 1883.16C797.218 1881.13 795.413 1878.71 794.163 1876.02C792.914 1873.33 792.244 1870.44 792.195 1867.51Z" fill="#263238"/>
<path d="M847.142 1886.05V1850.09C847.136 1849.64 847.225 1849.2 847.405 1848.79C847.584 1848.38 847.85 1848.01 848.186 1847.7C848.522 1847.39 848.921 1847.14 849.361 1846.98C849.8 1846.82 850.27 1846.74 850.742 1846.75H872.172C873.116 1846.75 874.02 1847.1 874.688 1847.73C875.355 1848.35 875.729 1849.2 875.729 1850.09C875.73 1850.98 875.358 1851.84 874.693 1852.48C874.028 1853.12 873.123 1853.49 872.172 1853.51H854.428V1864.69H869.558C870.512 1864.69 871.428 1865.05 872.103 1865.68C872.779 1866.31 873.158 1867.17 873.158 1868.07C873.158 1868.97 872.779 1869.83 872.103 1870.46C871.428 1871.09 870.512 1871.45 869.558 1871.45H854.428V1882.67H872.043C872.998 1882.67 873.914 1883.03 874.589 1883.66C875.264 1884.3 875.644 1885.16 875.644 1886.05C875.644 1886.95 875.264 1887.81 874.589 1888.44C873.914 1889.07 872.998 1889.43 872.043 1889.43H850.613C849.681 1889.4 848.798 1889.03 848.15 1888.4C847.503 1887.77 847.141 1886.93 847.142 1886.05Z" fill="#263238"/>
<path d="M912.375 1886.05C912.364 1886.93 911.992 1887.76 911.336 1888.39C910.681 1889.01 909.793 1889.37 908.86 1889.39C907.917 1889.39 907.012 1889.04 906.345 1888.41C905.678 1887.79 905.303 1886.94 905.303 1886.05V1850.53C905.266 1849.99 905.376 1849.44 905.623 1848.95C905.871 1848.46 906.247 1848.03 906.717 1847.71C907.481 1847.21 908.426 1847 909.349 1847.15C910.271 1847.29 911.097 1847.77 911.646 1848.48L932.648 1875.75V1850.61C932.659 1849.74 933.033 1848.91 933.69 1848.29C934.346 1847.67 935.234 1847.32 936.163 1847.31C937.103 1847.31 938.006 1847.66 938.678 1848.27C939.351 1848.89 939.74 1849.73 939.763 1850.61V1886.05C939.751 1886.94 939.367 1887.79 938.693 1888.41C938.019 1889.04 937.11 1889.39 936.163 1889.39C935.653 1889.38 935.151 1889.27 934.692 1889.06C934.233 1888.85 933.828 1888.55 933.505 1888.18L933.162 1887.82L912.375 1860.71V1886.05Z" fill="#263238"/>
<path d="M987.981 1852.02C992.212 1856.17 994.573 1861.7 994.573 1867.45C994.573 1873.19 992.212 1878.72 987.981 1882.87C986.018 1884.91 983.625 1886.54 980.954 1887.66C978.282 1888.79 975.392 1889.37 972.465 1889.39C969.474 1889.38 966.517 1888.8 963.775 1887.68C961.032 1886.56 958.564 1884.92 956.521 1882.87C952.385 1878.67 950.088 1873.16 950.088 1867.45C950.088 1861.73 952.385 1856.22 956.521 1852.02C958.542 1849.94 961.006 1848.28 963.752 1847.15C966.498 1846.02 969.467 1845.45 972.465 1845.46C975.397 1845.47 978.295 1846.06 980.969 1847.18C983.643 1848.31 986.032 1849.96 987.981 1852.02ZM987.166 1867.43C987.199 1863.5 985.671 1859.7 982.88 1856.77C981.566 1855.4 979.96 1854.3 978.166 1853.55C976.371 1852.8 974.429 1852.41 972.465 1852.41C970.501 1852.41 968.559 1852.8 966.765 1853.55C964.971 1854.3 963.364 1855.4 962.05 1856.77C959.245 1859.69 957.715 1863.49 957.764 1867.43C957.696 1871.35 959.229 1875.15 962.05 1878.05C963.357 1879.43 964.961 1880.53 966.756 1881.29C968.551 1882.05 970.497 1882.44 972.465 1882.44C974.433 1882.44 976.379 1882.05 978.174 1881.29C979.969 1880.53 981.573 1879.43 982.88 1878.05C985.73 1875.16 987.307 1871.36 987.295 1867.43H987.166Z" fill="#263238"/>
<path d="M1031.66 1853.47H1021.33V1886.05C1021.23 1886.88 1020.81 1887.64 1020.15 1888.2C1019.49 1888.76 1018.63 1889.06 1017.75 1889.06C1016.86 1889.06 1016 1888.76 1015.34 1888.2C1014.68 1887.64 1014.27 1886.88 1014.17 1886.05V1853.47H1003.88C1003.4 1853.48 1002.92 1853.41 1002.46 1853.24C1002.01 1853.08 1001.6 1852.84 1001.25 1852.52C1000.9 1852.21 1000.63 1851.83 1000.44 1851.41C1000.25 1850.99 1000.15 1850.54 1000.15 1850.09C1000.15 1849.65 1000.24 1849.21 1000.41 1848.8C1000.59 1848.4 1000.85 1848.03 1001.18 1847.71C1001.51 1847.4 1001.91 1847.16 1002.34 1846.99C1002.78 1846.83 1003.24 1846.74 1003.71 1846.75H1031.48C1032.43 1846.75 1033.33 1847.1 1034 1847.73C1034.67 1848.35 1035.04 1849.2 1035.04 1850.09C1035.03 1850.95 1034.68 1851.77 1034.05 1852.4C1033.43 1853.02 1032.57 1853.41 1031.66 1853.47Z" fill="#263238"/>
<path d="M1065.47 1886.05V1850.09C1065.47 1849.2 1065.85 1848.35 1066.51 1847.73C1067.18 1847.1 1068.09 1846.75 1069.03 1846.75H1090.46C1091.41 1846.75 1092.33 1847.1 1093.01 1847.74C1093.68 1848.37 1094.06 1849.23 1094.06 1850.13C1094.06 1851.02 1093.68 1851.88 1093.01 1852.52C1092.33 1853.15 1091.41 1853.51 1090.46 1853.51H1072.84V1864.69H1088.02C1088.97 1864.69 1089.89 1865.05 1090.56 1865.68C1091.24 1866.31 1091.62 1867.17 1091.62 1868.07C1091.62 1868.97 1091.24 1869.83 1090.56 1870.46C1089.89 1871.09 1088.97 1871.45 1088.02 1871.45H1072.84V1886.09C1072.82 1886.98 1072.43 1887.83 1071.75 1888.46C1071.07 1889.08 1070.15 1889.43 1069.2 1889.43C1068.72 1889.45 1068.23 1889.38 1067.78 1889.22C1067.32 1889.06 1066.91 1888.81 1066.56 1888.5C1066.21 1888.18 1065.93 1887.8 1065.75 1887.38C1065.56 1886.96 1065.47 1886.51 1065.47 1886.05Z" fill="#263238"/>
<path d="M1139.41 1852.02C1143.62 1856.18 1145.97 1861.7 1145.97 1867.45C1145.97 1873.19 1143.62 1878.71 1139.41 1882.87C1137.43 1884.9 1135.02 1886.52 1132.35 1887.65C1129.67 1888.77 1126.78 1889.36 1123.85 1889.39C1120.86 1889.38 1117.91 1888.8 1115.18 1887.68C1112.44 1886.56 1109.98 1884.92 1107.95 1882.87C1103.81 1878.67 1101.51 1873.16 1101.51 1867.45C1101.51 1861.73 1103.81 1856.22 1107.95 1852.02C1109.96 1849.94 1112.42 1848.29 1115.16 1847.16C1117.9 1846.03 1120.86 1845.45 1123.85 1845.46C1126.79 1845.47 1129.69 1846.06 1132.37 1847.19C1135.05 1848.32 1137.45 1849.96 1139.41 1852.02ZM1138.55 1867.43C1138.58 1863.5 1137.05 1859.7 1134.26 1856.77C1132.95 1855.4 1131.35 1854.3 1129.56 1853.55C1127.77 1852.8 1125.83 1852.42 1123.87 1852.42C1121.91 1852.42 1119.97 1852.8 1118.18 1853.55C1116.39 1854.3 1114.79 1855.4 1113.48 1856.77C1110.65 1859.68 1109.12 1863.49 1109.19 1867.43C1109.1 1871.35 1110.64 1875.16 1113.48 1878.05C1114.78 1879.43 1116.38 1880.53 1118.17 1881.29C1119.96 1882.04 1121.9 1882.44 1123.87 1882.44C1125.83 1882.44 1127.78 1882.04 1129.57 1881.29C1131.36 1880.53 1132.96 1879.43 1134.26 1878.05C1137.07 1875.14 1138.6 1871.35 1138.55 1867.43Z" fill="#263238"/>
<path d="M1174.72 1889.39C1172.26 1889.4 1169.81 1888.94 1167.53 1888.06C1165.25 1887.18 1163.18 1885.88 1161.44 1884.24C1159.69 1882.6 1158.31 1880.66 1157.37 1878.52C1156.43 1876.38 1155.95 1874.09 1155.95 1871.77V1850.09C1155.94 1849.65 1156.03 1849.21 1156.21 1848.8C1156.39 1848.4 1156.65 1848.03 1156.98 1847.71C1157.31 1847.4 1157.71 1847.16 1158.14 1846.99C1158.57 1846.83 1159.04 1846.74 1159.51 1846.75C1159.98 1846.74 1160.45 1846.83 1160.89 1846.99C1161.33 1847.16 1161.73 1847.4 1162.07 1847.71C1162.4 1848.02 1162.67 1848.39 1162.86 1848.8C1163.05 1849.21 1163.15 1849.64 1163.15 1850.09V1871.81C1163.15 1874.69 1164.37 1877.45 1166.54 1879.49C1168.71 1881.53 1171.65 1882.67 1174.72 1882.67C1177.79 1882.67 1180.74 1881.53 1182.91 1879.49C1185.08 1877.45 1186.3 1874.69 1186.3 1871.81V1850.09C1186.3 1849.64 1186.39 1849.2 1186.57 1848.79C1186.76 1848.38 1187.03 1848.01 1187.37 1847.7C1187.71 1847.39 1188.11 1847.14 1188.55 1846.98C1188.99 1846.82 1189.46 1846.74 1189.94 1846.75C1190.41 1846.74 1190.87 1846.83 1191.31 1846.99C1191.74 1847.16 1192.14 1847.4 1192.47 1847.71C1192.8 1848.03 1193.06 1848.4 1193.24 1848.8C1193.41 1849.21 1193.5 1849.65 1193.5 1850.09V1871.81C1193.48 1876.48 1191.5 1880.95 1187.98 1884.24C1184.46 1887.54 1179.7 1889.39 1174.72 1889.39Z" fill="#263238"/>
<path d="M1214.97 1886.05C1214.96 1886.93 1214.59 1887.76 1213.93 1888.39C1213.27 1889.01 1212.39 1889.37 1211.45 1889.39C1210.51 1889.39 1209.61 1889.04 1208.94 1888.41C1208.27 1887.79 1207.9 1886.94 1207.9 1886.05V1850.53C1207.86 1849.82 1208.07 1849.11 1208.5 1848.52C1208.93 1847.93 1209.55 1847.49 1210.27 1847.25C1210.99 1847.02 1211.77 1847.02 1212.49 1847.24C1213.22 1847.46 1213.85 1847.89 1214.28 1848.48L1235.28 1875.75V1850.61C1235.28 1849.74 1235.65 1848.91 1236.3 1848.29C1236.95 1847.67 1237.83 1847.32 1238.76 1847.31C1239.7 1847.31 1240.6 1847.66 1241.27 1848.27C1241.95 1848.89 1242.33 1849.73 1242.36 1850.61V1886.05C1242.37 1886.74 1242.16 1887.42 1241.74 1887.99C1241.33 1888.56 1240.73 1888.99 1240.04 1889.22C1239.35 1889.46 1238.6 1889.48 1237.89 1889.3C1237.19 1889.11 1236.56 1888.72 1236.1 1888.18C1235.97 1888.08 1235.87 1887.96 1235.8 1887.82L1214.97 1860.71V1886.05Z" fill="#263238"/>
<path d="M1254.74 1886.05V1850.09C1254.74 1849.65 1254.83 1849.21 1255 1848.8C1255.18 1848.4 1255.44 1848.03 1255.77 1847.71C1256.1 1847.4 1256.5 1847.16 1256.93 1846.99C1257.37 1846.83 1257.83 1846.74 1258.3 1846.75H1265.89C1271.75 1846.99 1277.28 1849.34 1281.34 1853.32C1285.39 1857.29 1287.66 1862.58 1287.66 1868.09C1287.66 1873.59 1285.39 1878.89 1281.34 1882.86C1277.28 1886.84 1271.75 1889.19 1265.89 1889.43H1258.22C1257.28 1889.41 1256.39 1889.04 1255.74 1888.41C1255.09 1887.78 1254.73 1886.93 1254.74 1886.05ZM1261.94 1882.63H1265.89C1269.87 1882.44 1273.61 1880.81 1276.36 1878.1C1279.1 1875.39 1280.63 1871.79 1280.63 1868.05C1280.63 1864.31 1279.1 1860.71 1276.36 1858C1273.61 1855.28 1269.87 1853.66 1265.89 1853.47H1261.86L1261.94 1882.63Z" fill="#263238"/>
<path d="M661.556 1569.94C661.546 1576.46 660.152 1582.92 657.457 1588.94C654.761 1594.95 650.818 1600.41 645.856 1604.98C640.894 1609.55 635.012 1613.15 628.554 1615.56C622.096 1617.98 615.19 1619.17 608.238 1619.06H598.723V1687C598.723 1700.04 593.205 1712.54 583.382 1721.76C573.56 1730.98 560.238 1736.16 546.347 1736.16C532.457 1736.16 519.135 1730.98 509.312 1721.76C499.49 1712.54 493.972 1700.04 493.972 1687V1619.06H193.949C182.106 1619.48 170.536 1615.65 161.59 1608.36C156.075 1604.46 151.461 1599.56 148.025 1593.95C144.589 1588.33 142.405 1582.12 141.603 1575.69C140.802 1569.25 141.4 1562.74 143.362 1556.53C145.324 1550.32 148.609 1544.55 153.018 1539.57L505.287 1128.51C506.23 1128.51 506.23 1127.63 507.173 1126.7C508.375 1125.7 509.352 1124.49 510.045 1123.12C511.864 1122.68 513.513 1121.76 514.802 1120.47C515.745 1119.58 517.674 1118.66 518.617 1117.77C520.286 1116.66 522.271 1116.05 524.317 1116C525.26 1114.19 526.246 1113.31 528.132 1113.31C529.075 1112.42 531.003 1112.42 533.832 1111.54C535.182 1111.68 536.539 1111.35 537.647 1110.61H553.848C555.299 1111.36 556.957 1111.68 558.605 1111.54C559.548 1112.42 562.42 1112.42 564.306 1113.31C565.249 1113.31 567.177 1114.19 568.12 1114.19C570.049 1116 571.935 1116.89 572.878 1117.77C574.764 1118.66 575.75 1119.58 577.635 1120.47C577.759 1120.47 577.882 1120.49 577.996 1120.54C578.111 1120.58 578.215 1120.65 578.302 1120.73C578.39 1120.81 578.459 1120.91 578.507 1121.02C578.554 1121.12 578.578 1121.24 578.578 1121.35C579.564 1121.35 581.45 1122.24 581.45 1123.12L585.265 1126.7C586.207 1127.63 587.15 1129.4 588.093 1130.28C589.559 1131.62 590.84 1133.12 591.908 1134.75C592.16 1136.1 592.831 1137.34 593.837 1138.33C594.6 1140.07 595.23 1141.86 595.723 1143.68C595.723 1144.61 596.665 1146.38 596.665 1147.26C597.512 1148.94 597.839 1150.81 597.608 1152.65C597.608 1154.42 598.594 1155.31 598.594 1157.12V1520.78H608.109C622.13 1520.68 635.623 1525.8 645.637 1535.01C655.652 1544.22 661.375 1556.78 661.556 1569.94ZM493.972 1300.09L304.529 1520.78H493.972V1300.09Z" fill="#455A64"/>
<path d="M1814.84 1569.94C1814.83 1576.46 1813.44 1582.92 1810.74 1588.94C1808.05 1594.95 1804.1 1600.41 1799.14 1604.98C1794.18 1609.55 1788.3 1613.15 1781.84 1615.57C1775.38 1617.98 1768.48 1619.17 1761.52 1619.06H1751.97V1687C1751.58 1699.79 1745.89 1711.93 1736.11 1720.85C1726.34 1729.77 1713.24 1734.76 1699.61 1734.76C1685.98 1734.76 1672.89 1729.77 1663.11 1720.85C1653.34 1711.93 1647.65 1699.79 1647.26 1687V1619.06H1347.32C1335.48 1619.48 1323.91 1615.66 1314.96 1608.36C1309.45 1604.46 1304.83 1599.56 1301.4 1593.95C1297.96 1588.33 1295.78 1582.12 1294.98 1575.69C1294.17 1569.25 1294.77 1562.74 1296.73 1556.53C1298.7 1550.32 1301.98 1544.55 1306.39 1539.57L1658.66 1128.52C1659.6 1128.52 1659.6 1127.63 1660.55 1126.7C1661.73 1125.69 1662.71 1124.48 1663.42 1123.12C1665.24 1122.68 1666.89 1121.76 1668.17 1120.47C1669.12 1119.58 1671.05 1118.66 1671.99 1117.77C1673.66 1116.66 1675.64 1116.05 1677.69 1116C1678.63 1114.19 1679.58 1113.31 1681.5 1113.31C1682.45 1112.42 1684.33 1112.42 1687.2 1111.54C1688.55 1111.68 1689.91 1111.35 1691.02 1110.61H1707.35C1708.8 1111.36 1710.46 1111.68 1712.11 1111.54C1713.05 1112.42 1715.92 1112.42 1717.81 1113.31C1718.75 1113.31 1720.68 1114.19 1721.62 1114.19C1723.55 1116 1725.39 1116.89 1726.38 1117.77C1728.26 1118.66 1729.21 1119.58 1731.14 1120.47C1731.26 1120.47 1731.38 1120.49 1731.5 1120.54C1731.61 1120.58 1731.72 1120.65 1731.8 1120.73C1731.89 1120.81 1731.96 1120.91 1732.01 1121.02C1732.06 1121.12 1732.08 1121.24 1732.08 1121.35C1733.02 1121.35 1734.95 1122.24 1734.95 1123.12L1738.77 1126.7C1739.71 1127.63 1740.65 1129.4 1741.59 1130.29C1743.06 1131.62 1744.34 1133.12 1745.41 1134.75C1745.66 1136.1 1746.33 1137.34 1747.34 1138.33C1748.1 1140.07 1748.73 1141.86 1749.22 1143.68C1749.22 1144.61 1750.17 1146.38 1750.17 1147.26C1751.01 1148.94 1751.34 1150.81 1751.11 1152.65C1751.11 1154.42 1752.05 1155.31 1752.05 1157.12V1520.78H1761.61C1775.59 1520.74 1789.03 1525.88 1799 1535.08C1808.97 1544.29 1814.66 1556.81 1814.84 1569.94ZM1647.34 1300.09L1457.9 1520.78H1647.34V1300.09Z" fill="#455A64"/>
<path d="M608.281 632.663C610.82 609.87 620.057 588.189 634.962 570.037C649.866 551.886 669.851 537.979 692.687 529.868C715.522 521.757 740.31 519.761 764.284 524.103C788.258 528.446 810.474 538.955 828.454 554.459L894.374 545.367L861.371 598.871C869.624 617.7 872.733 638.166 870.415 658.409C868.841 674.733 863.827 690.601 855.663 705.09C847.499 719.579 836.349 732.402 822.86 742.812C809.371 753.222 793.812 761.012 777.088 765.729C760.363 770.447 742.807 771.997 725.439 770.292C708.07 768.586 691.236 763.657 675.915 755.792C660.593 747.927 647.09 737.283 636.189 724.477C625.288 711.672 617.208 696.961 612.417 681.199C607.626 665.437 606.22 648.939 608.281 632.663Z" fill="white"/>
<path d="M608.281 632.662C610.821 609.873 620.016 588.184 634.854 569.987C642.061 560.755 650.734 552.615 660.57 545.85C670.272 538.938 680.964 533.345 692.33 529.236C703.708 525.034 715.651 522.327 727.818 521.19C733.902 520.661 740.019 520.553 746.12 520.868C752.247 520.996 758.353 521.587 764.378 522.638C788.675 526.834 811.247 537.295 829.569 552.85L827.983 552.407L893.859 542.913L898.617 542.229L896.217 546.252L863.428 599.836V597.744C871.116 615.312 874.434 634.295 873.13 653.247C871.827 672.2 865.935 690.624 855.905 707.118C845.874 723.613 831.968 737.743 815.244 748.435C798.521 759.126 779.419 766.098 759.393 768.819C739.367 771.54 718.944 769.939 699.676 764.138C680.408 758.337 662.804 748.489 648.201 735.342C633.598 722.195 622.382 706.095 615.405 688.268C608.428 670.44 605.874 651.354 607.938 632.461L608.281 632.662ZM608.281 632.662C606.332 651.335 608.917 670.18 615.843 687.78C622.769 705.381 633.856 721.278 648.269 734.279C662.765 747.104 680.133 756.725 699.102 762.439C718.075 767.903 738.117 769.278 757.735 766.461C777.261 763.736 795.865 756.856 812.125 746.347C828.218 735.777 841.672 722.051 851.556 706.119C861.271 690.098 866.986 672.217 868.272 653.822C869.514 635.43 866.35 617.011 859.014 599.917L858.542 598.831L859.185 597.825L892.359 544.442L894.716 547.701L828.711 556.189H827.811L827.168 555.625C809.572 540.148 787.722 529.588 764.078 525.133C758.173 524.007 752.183 523.32 746.162 523.081C740.17 522.679 734.154 522.679 728.161 523.081C716.128 523.933 704.282 526.37 692.973 530.322C681.584 534.182 670.866 539.605 661.17 546.413C651.342 553.014 642.667 561.007 635.454 570.108C620.41 588.201 611.004 609.854 608.281 632.662Z" fill="#263238"/>
<path d="M748.263 664.483V679.448C748.298 680.952 748.008 682.447 747.411 683.843C746.814 685.239 745.922 686.508 744.788 687.571C743.655 688.635 742.304 689.473 740.816 690.033C739.329 690.593 737.736 690.865 736.133 690.832C732.912 690.832 729.823 689.634 727.541 687.5C725.26 685.367 723.972 682.471 723.961 679.448V655.311C723.961 655.07 724.218 655.07 724.218 654.868C724.218 654.667 723.961 654.627 723.961 654.386C724.122 651.431 725.465 648.642 727.721 646.576C729.978 644.51 732.982 643.32 736.133 643.243C739.87 643.38 743.597 642.809 747.092 641.562C750.587 640.315 753.778 638.418 756.473 635.986C759.169 633.554 761.313 630.636 762.778 627.407C764.243 624.178 764.998 620.704 764.998 617.195C764.998 613.685 764.243 610.212 762.778 606.983C761.313 603.754 759.169 600.836 756.473 598.404C753.778 595.971 750.587 594.075 747.092 592.828C743.597 591.581 739.87 591.009 736.133 591.147C731.322 591.138 726.593 592.314 722.418 594.559C718.243 596.804 714.77 600.039 712.346 603.94C711.528 605.249 710.442 606.393 709.15 607.305C707.858 608.217 706.386 608.88 704.819 609.254C703.252 609.628 701.622 609.707 700.023 609.485C698.423 609.263 696.886 608.746 695.502 607.962C694.124 607.211 692.919 606.21 691.957 605.018C690.994 603.826 690.294 602.466 689.895 601.018C689.496 599.57 689.408 598.062 689.634 596.582C689.861 595.102 690.399 593.678 691.216 592.394C695.542 585.399 701.652 579.523 708.996 575.292C716.34 571.061 724.689 568.608 733.292 568.154C741.896 567.7 750.485 569.258 758.288 572.689C766.091 576.12 772.865 581.317 778 587.812C783.135 594.307 786.471 601.897 787.708 609.901C788.945 617.906 788.045 626.073 785.089 633.67C782.132 641.267 777.212 648.056 770.769 653.427C764.326 658.798 756.563 662.583 748.177 664.443L748.263 664.483ZM748.263 715.412V719.435C748.298 720.939 748.008 722.434 747.411 723.83C746.814 725.226 745.922 726.494 744.788 727.558C743.655 728.622 742.304 729.459 740.816 730.02C739.329 730.58 737.736 730.852 736.133 730.819C732.912 730.819 729.823 729.621 727.541 727.487C725.26 725.353 723.972 722.458 723.961 719.435V715.412C724.016 712.402 725.318 709.53 727.59 707.405C729.862 705.28 732.926 704.069 736.133 704.027C737.731 704.011 739.316 704.295 740.795 704.861C742.275 705.427 743.619 706.265 744.749 707.326C745.878 708.386 746.771 709.648 747.375 711.036C747.978 712.425 748.28 713.912 748.263 715.412Z" fill="#FFC727"/>
</svg>
